<svg width="72" height="72" viewBox="0 0 72 72" fill="none" xmlns="http://www.w3.org/2000/svg">
<g clip-path="url(#clip0_324_1125)">
<path d="M15.2578 0.773354C15.075 0.815536 0.421875 15.4687 0.421875 15.6093C0.421875 15.6655 0.421875 26.5499 0.421875 39.7898C0.421875 61.4882 0.435938 63.9069 0.534375 64.2937C0.914063 65.7773 2.15156 66.9515 3.67031 67.2819L4.25391 67.4085L4.30313 67.7882C4.40859 68.6249 4.89375 69.5249 5.57578 70.1507C6.09609 70.6218 6.59531 70.903 7.24219 71.0788L7.76953 71.2265H29.4258C53.3461 71.2265 51.3984 71.2616 52.3828 70.7835C53.0227 70.4671 53.768 69.7288 54.0984 69.0679C54.5555 68.1538 54.5625 68.0976 54.5625 63.9351V60.2015L55.4273 59.7796C56.3203 59.3366 57.0305 58.8937 57.607 58.4155L57.9516 58.1273L58.7813 58.9569L59.6109 59.7796L59.4563 60.1101C59.3367 60.3773 59.3086 60.5671 59.3086 61.1718C59.3086 62.4023 59.1117 62.1491 63.45 66.4944C67.507 70.5585 67.4438 70.5093 68.3789 70.6499C69.6023 70.8468 70.8258 70.1858 71.3531 69.0608C71.5219 68.7023 71.543 68.5757 71.543 67.8866C71.543 66.614 71.7539 66.8812 67.4367 62.564C63.9633 59.0835 63.7102 58.8444 63.2461 58.6265C62.7891 58.4155 62.6977 58.3944 62.0508 58.3944C61.4672 58.3944 61.2914 58.4226 60.9961 58.5562L60.6516 58.7179L59.857 57.9233C59.4211 57.4874 59.0625 57.1007 59.0625 57.0726C59.0625 57.0374 59.182 56.8616 59.3367 56.6788C59.7727 56.1585 60.3844 55.1741 60.7148 54.471C61.9383 51.8483 62.107 48.9304 61.2 46.1952C60.4195 43.8538 58.8375 41.7866 56.7773 40.4155C56.2992 40.0991 55.0406 39.4382 54.7242 39.3468L54.5625 39.2976V23.7444C54.5625 6.57413 54.5906 7.79054 54.1125 6.82726C53.543 5.70929 52.5305 4.95695 51.2086 4.68976L50.7305 4.59132L50.6813 4.23273C50.4492 2.63663 49.2117 1.2796 47.6367 0.878822C47.2711 0.787415 45.225 0.773354 31.3102 0.759285C22.5633 0.745224 15.3422 0.752258 15.2578 0.773354ZM47.6859 2.47491C48.2414 2.73507 48.6844 3.16398 48.9586 3.71944L49.1836 4.18351L49.2047 21.4101L49.2188 38.6437L48.5367 38.7702C45.2461 39.3819 42.3422 41.5476 40.7461 44.571L40.4578 45.1054L31.7461 45.1405C26.9508 45.1616 22.9781 45.2038 22.9148 45.2319C22.7461 45.3163 22.5703 45.6679 22.5703 45.914C22.5703 46.0757 22.6406 46.2093 22.8094 46.378L23.0484 46.6171H31.4578C36.0844 46.6171 39.8672 46.6452 39.8672 46.6733C39.8672 46.7015 39.8039 47.0108 39.7266 47.3554C39.3609 49.0569 39.4172 50.9132 39.9023 52.8257L39.9516 53.0155H31.5H23.0484L22.8094 53.2546C22.6266 53.4374 22.5703 53.5499 22.5703 53.7538C22.5703 53.9577 22.6266 54.0702 22.8094 54.253L23.0484 54.4921H31.7953H40.5352L40.8305 55.0405C42.3352 57.846 45.0703 59.9062 48.2133 60.6023C48.5719 60.6866 48.9445 60.7499 49.043 60.7499H49.2258L49.2047 62.353L49.1836 63.9562L48.9586 64.4132C48.6844 64.9687 48.2414 65.3976 47.6859 65.6577L47.2852 65.8476L25.7344 65.8687C1.82109 65.8827 3.81094 65.9249 3.04453 65.4187C2.57344 65.1163 2.22188 64.6312 2.03906 64.0616C1.89844 63.6187 1.89844 63.4429 1.89844 40.1062V16.6007L7.36875 16.5796C12.4523 16.5585 12.8602 16.5444 13.2188 16.4249C14.6813 15.9398 15.6656 14.9343 16.0805 13.521C16.1859 13.1554 16.207 12.5437 16.2281 7.67804L16.2492 2.24992L31.7672 2.26398L47.2852 2.28507L47.6859 2.47491ZM14.6813 9.38663L14.6602 13.1835L14.4422 13.6054C14.182 14.1046 13.6266 14.646 13.1625 14.8569C12.832 15.0116 12.7969 15.0116 7.91016 15.0327L2.98828 15.0468L8.82422 9.21085L14.6602 3.37492L14.6813 4.47882C14.6883 5.09054 14.6883 7.29835 14.6813 9.38663ZM51.5039 6.32804C51.9539 6.52491 52.3617 6.86241 52.6219 7.25616C53.1211 8.00851 53.0859 6.82726 53.0859 23.639C53.0859 31.9851 53.0648 38.8124 53.0367 38.8124C53.0016 38.8124 52.6992 38.7632 52.3477 38.7069C52.0031 38.6507 51.5039 38.6015 51.2438 38.6015H50.7656V22.3593V6.1171L50.9977 6.16632C51.1172 6.18742 51.3492 6.26476 51.5039 6.32804ZM52.0594 40.1835C56.025 40.7741 59.2102 43.7765 60.082 47.7421C60.2578 48.5437 60.3 50.3015 60.1664 51.1523C59.5055 55.3148 56.3414 58.5421 52.2492 59.2312C51.3984 59.3718 49.8516 59.3788 49.0359 59.2382C44.8523 58.521 41.6672 55.2233 41.0555 50.9835C40.943 50.1749 41.0133 48.4593 41.1961 47.6648C41.9906 44.1983 44.5711 41.4421 47.9461 40.4577C49.2047 40.0921 50.7375 39.9866 52.0594 40.1835ZM62.4727 59.9132C62.7117 59.9765 63.2742 60.5108 66.2906 63.5132C68.625 65.8476 69.8695 67.1413 69.9609 67.3312C70.1859 67.7952 70.1086 68.414 69.7641 68.7866C69.4125 69.1733 68.6953 69.2999 68.2172 69.0538C67.8305 68.8499 60.9961 61.9733 60.8555 61.6499C60.6445 61.1226 60.757 60.6093 61.1789 60.2155C61.5656 59.8569 61.9453 59.7726 62.4727 59.9132ZM53.0859 64.0054C53.0859 66.846 53.0648 67.4718 52.9805 67.8163C52.7766 68.5898 52.2492 69.2085 51.4969 69.553L51.1523 69.7148H29.4258H7.69922L7.3125 69.5319C6.54609 69.1663 5.91328 68.3788 5.79375 67.6546L5.74453 67.3593L26.6555 67.3452L47.5664 67.3241L48.0445 67.1343C49.3102 66.621 50.2383 65.6155 50.5969 64.3358C50.6742 64.0687 50.7164 63.4851 50.7445 62.4233L50.7867 60.8976L51.3211 60.8554C51.6164 60.8273 52.0945 60.771 52.3828 60.7218C52.6711 60.6655 52.9523 60.6233 53.0016 60.6163C53.0648 60.6093 53.0859 61.3335 53.0859 64.0054Z" fill="white"/>
<path d="M26.9514 7.41797C24.0334 8.40234 21.8256 10.6453 20.8905 13.5914C20.6725 14.2734 20.5319 15.1172 20.6373 15.1172C20.6655 15.1172 22.7397 15.5883 25.2498 16.1719C27.76 16.7484 29.9256 17.2266 30.0662 17.2266C30.4108 17.2266 30.7272 16.9102 30.7272 16.5656C30.7272 16.3688 29.0186 9.03516 28.6811 7.77656C28.6389 7.62891 28.5264 7.43203 28.428 7.34062C28.1748 7.10156 27.8233 7.12266 26.9514 7.41797ZM27.4225 8.89453C27.4225 8.91563 27.7741 10.3922 28.1959 12.1781C28.6248 13.9641 28.9553 15.4336 28.9412 15.4477C28.9272 15.4617 27.4366 15.1313 25.6366 14.7164L22.353 13.9641L22.3952 13.7883C22.4866 13.4297 22.9295 12.5508 23.3233 11.9602C23.8014 11.2359 24.7436 10.2867 25.4397 9.82266C26.185 9.32344 27.4225 8.74687 27.4225 8.89453Z" fill="white"/>
<path d="M32.3434 9.60468C31.7176 9.68202 30.888 9.87186 30.7403 9.96327C30.6489 10.0195 30.5294 10.1742 30.4731 10.3078C30.3817 10.5328 30.4169 10.7367 31.3661 14.6672C31.9075 16.9312 32.3364 18.8016 32.3153 18.8226C32.3012 18.8437 30.4661 18.4359 28.2512 17.9226C26.0364 17.4094 24.1169 16.9875 23.9833 16.9945C23.8216 17.0016 23.6739 17.0719 23.5403 17.2125C23.252 17.4937 23.1114 18.3797 23.1114 19.8633C23.1044 21.9867 23.6387 23.7937 24.7708 25.5094C26.3247 27.8648 28.6028 29.3976 31.4294 30.0023C32.3716 30.1992 34.5231 30.1851 35.5005 29.9672C37.6028 29.4961 39.1708 28.6312 40.6755 27.1125C41.8778 25.9031 42.6864 24.6023 43.1926 23.0625C44.0012 20.6016 43.7833 17.5992 42.6301 15.293C41.2028 12.4523 38.5309 10.4062 35.4161 9.7664C34.72 9.62577 32.9411 9.53436 32.3434 9.60468ZM35.1841 11.257C38.5731 11.9391 41.2661 14.632 42.0184 18.0844C42.1942 18.8719 42.2223 20.4258 42.0887 21.2695C41.8005 23.0203 41.0059 24.6234 39.7825 25.9101C39.0231 26.7117 38.2567 27.2742 37.2301 27.7805C34.8044 28.9687 32.0341 28.9758 29.5801 27.8086C27.9067 27.0141 26.3458 25.4812 25.495 23.7797C25.1645 23.1187 24.8481 22.1484 24.7145 21.3891C24.6091 20.7773 24.5669 18.8719 24.6653 18.7312C24.7005 18.675 26.0012 18.9492 28.9333 19.6242C31.2536 20.1656 33.2716 20.6016 33.4192 20.6016C33.7989 20.6016 34.1012 20.2992 34.1012 19.9195C34.1012 19.7648 33.6442 17.7469 33.0887 15.4266C32.5333 13.1133 32.0903 11.2008 32.1114 11.1797C32.1817 11.1023 33.0466 11.0531 33.7497 11.0883C34.1575 11.1023 34.8044 11.1797 35.1841 11.257Z" fill="white"/>
<path d="M7.59375 37.6945V40.5141L7.83281 40.7531L8.07187 40.9922H10.6172C13.2609 40.9922 13.3453 40.9852 13.5844 40.6828C13.6969 40.5492 13.7109 40.2961 13.7109 37.9898C13.7109 36.1617 13.6898 35.3953 13.6266 35.2617C13.4578 34.882 13.3875 34.875 10.3711 34.875H7.59375V37.6945ZM12.2344 37.9336V39.5156H10.6523H9.07031V37.9336V36.3516H10.6523H12.2344V37.9336Z" fill="white"/>
<path d="M23.0203 37.2937C22.732 37.4202 22.5703 37.6593 22.5703 37.9687C22.5703 38.2851 22.732 38.5171 23.0344 38.6437C23.3859 38.7913 42.7078 38.7913 43.0664 38.6437C43.3125 38.5382 43.5234 38.2288 43.5234 37.9687C43.5234 37.7085 43.3125 37.3991 43.0664 37.2937C42.7148 37.146 23.3508 37.153 23.0203 37.2937Z" fill="white"/>
<path d="M7.59375 45.6328V48.4453L7.79766 48.6703L8.00156 48.9023H10.6523H13.3031L13.507 48.6703L13.7109 48.4453V45.8367V43.2281L13.507 43.0242L13.3031 42.8203H10.4484H7.59375V45.6328ZM12.2344 45.8789V47.4609L10.6734 47.4469L9.10547 47.4258L9.08437 45.8578L9.07031 44.2969H10.6523H12.2344V45.8789Z" fill="white"/>
<path d="M7.59375 53.5148V56.3344L7.83281 56.5734L8.07187 56.8125H10.6102C13.3734 56.8125 13.4578 56.7984 13.6266 56.4258C13.6898 56.2922 13.7109 55.5188 13.7109 53.6836V51.1313L13.493 50.9133L13.275 50.6953H10.4344H7.59375V53.5148ZM12.2344 53.7539V55.3359H10.6523H9.07031V53.7539V52.1719H10.6523H12.2344V53.7539Z" fill="white"/>
<path d="M49.5351 41.7725C45.703 42.328 42.8273 45.4639 42.6304 49.2889C42.5109 51.6093 43.3476 53.7749 44.9929 55.4061C45.9984 56.4046 47.2851 57.1358 48.6351 57.4874C49.5702 57.7335 51.0116 57.7897 51.9538 57.628C56.8335 56.7772 59.7866 51.8413 58.2187 47.1655C57.403 44.7327 55.4343 42.8132 52.9734 42.0468C51.9609 41.7374 50.5616 41.6249 49.5351 41.7725ZM51.3069 43.2491C54.0702 43.5585 56.2921 45.5061 56.9671 48.2061C57.178 49.0569 57.178 50.4772 56.9671 51.2647C56.3062 53.7186 54.5202 55.4694 52.0452 56.0882C51.3984 56.2499 49.8515 56.2499 49.2046 56.0882C47.946 55.7788 46.9124 55.2022 46.0335 54.3233C45.1968 53.5007 44.6202 52.4952 44.3179 51.3421C44.0718 50.4139 44.0577 49.1202 44.2827 48.2061C44.4655 47.4608 44.8804 46.5538 45.3093 45.9632C45.6609 45.4639 46.5046 44.6343 46.9687 44.3178C47.9319 43.6639 49.1273 43.2843 50.5054 43.1788C50.5757 43.1788 50.9343 43.2069 51.3069 43.2491Z" fill="white"/>
</g>
<defs>
<clipPath id="clip0_324_1125">
<rect width="72" height="72" fill="white"/>
</clipPath>
</defs>
</svg>
