<svg width="92" height="22" viewBox="0 0 92 22" fill="none" xmlns="http://www.w3.org/2000/svg">
<g clip-path="url(#clip0_343_1352)">
<path d="M90.7064 20.5794C90.7629 20.5799 90.819 20.5691 90.8711 20.5476C90.9232 20.526 90.9702 20.4942 91.0092 20.4542C91.0482 20.4141 91.0784 20.3666 91.0979 20.3146C91.1174 20.2626 91.1257 20.2073 91.1225 20.152C91.1225 19.8489 90.9358 19.7041 90.5526 19.7041H89.9336V21.291H90.1664V20.5992H90.4525L90.4591 20.6077L90.9031 21.291H91.1521L90.6744 20.5838L90.7064 20.5794ZM90.4371 20.4204H90.1671V19.8839H90.5093C90.6861 19.8839 90.8876 19.9122 90.8876 20.1389C90.8876 20.3995 90.6837 20.4204 90.4357 20.4204" fill="#E0E3E4"/>
<path d="M0 3.22852H3.43679V15.487H9.79931V18.5927H0V3.22852Z" fill="#E0E3E4"/>
<path d="M11.3195 8.17522H14.6211V18.5869H11.3195V8.17522ZM12.9703 2.99902C13.3491 2.99909 13.7194 3.10914 14.0343 3.31526C14.3492 3.52139 14.5947 3.81432 14.7396 4.15703C14.8845 4.49973 14.9224 4.87682 14.8484 5.24061C14.7745 5.60439 14.592 5.93854 14.3242 6.2008C14.0563 6.46306 13.715 6.64164 13.3435 6.71398C12.972 6.78632 12.5869 6.74916 12.2369 6.6072C11.887 6.46524 11.5879 6.22485 11.3774 5.91644C11.167 5.60802 11.0547 5.24543 11.0547 4.87451C11.0547 4.62819 11.1042 4.38428 11.2005 4.15671C11.2968 3.92915 11.4379 3.72238 11.6158 3.54822C11.7937 3.37406 12.0049 3.23592 12.2373 3.14169C12.4697 3.04746 12.7188 2.99898 12.9703 2.99902Z" fill="#E0E3E4"/>
<path d="M28.4316 3.22656H31.7333V12.4087L35.4751 8.17106H39.5231L35.1897 12.9913L39.4319 18.5918H35.2822L31.7773 13.4453H31.734V18.5911H28.4323L28.4316 3.22656Z" fill="#E0E3E4"/>
<path d="M16.4512 8.17644H19.6218V9.5993H19.6668C19.9835 9.068 20.4416 8.63091 20.9922 8.3347C21.5428 8.03848 22.1653 7.89427 22.7931 7.91745C26.1411 7.91745 26.7574 10.0745 26.7574 12.8768V18.5864H23.4558V13.5244C23.4558 12.316 23.4331 10.7628 21.7362 10.7628C20.02 10.7628 19.7552 12.0786 19.7552 13.4365V18.5851H16.4536L16.4512 8.17644Z" fill="#E0E3E4"/>
<path d="M46.4757 12.1698C46.482 11.9075 46.4339 11.6467 46.3343 11.4032C46.2346 11.1596 46.0855 10.9384 45.896 10.753C45.7065 10.5675 45.4805 10.4217 45.2317 10.3242C44.9829 10.2268 44.7165 10.1799 44.4487 10.1862C43.8718 10.1511 43.3039 10.3393 42.8675 10.7104C42.431 11.0815 42.161 11.6056 42.1155 12.1698H46.4757ZM49.2725 16.7836C48.7238 17.4351 48.0341 17.9589 47.2532 18.3172C46.4723 18.6755 45.6198 18.8592 44.7575 18.8551C41.4559 18.8551 38.8125 16.6971 38.8125 13.3553C38.8125 10.0135 41.4555 7.85645 44.7575 7.85645C47.8435 7.85645 49.7787 10.0118 49.7787 13.3553V14.369H42.1155C42.2109 14.9438 42.5153 15.4656 42.9725 15.8381C43.4298 16.2106 44.0091 16.4087 44.6038 16.396C45.0737 16.3931 45.5354 16.2752 45.947 16.053C46.3585 15.8308 46.7067 15.5113 46.96 15.1237L49.2725 16.7836Z" fill="#E0E3E4"/>
<path d="M56.6605 10.6925C55.0097 10.6925 54.0192 11.7719 54.0192 13.3446C54.0192 14.9173 55.0094 15.9977 56.6605 15.9977C58.3117 15.9977 59.3042 14.92 59.3042 13.3446C59.3042 11.7692 58.3134 10.6925 56.6605 10.6925ZM62.3438 18.5854H59.3042V17.2047H59.2592C58.8779 17.7069 58.3833 18.1162 57.8139 18.4005C57.2446 18.6849 56.6159 18.8367 55.9768 18.8441C52.8045 18.8441 50.7148 16.6022 50.7148 13.4318C50.7148 10.5201 52.5641 7.84644 55.604 7.84644C56.9704 7.84644 58.2467 8.21251 58.9954 9.22721H59.0387V3.22559H62.3435L62.3438 18.5854Z" fill="#E0E3E4"/>
<path d="M84.6326 18.5913H81.331V13.5283C81.331 12.321 81.3089 10.7668 79.6138 10.7668C77.8942 10.7668 77.6311 12.0822 77.6311 13.4404V18.591H74.3294V8.17933H77.499V9.6022H77.5434C77.8606 9.07112 78.3189 8.63423 78.8696 8.33806C79.4203 8.04189 80.0428 7.89753 80.6706 7.92036C84.017 7.92036 84.634 10.0757 84.634 12.8797L84.6326 18.5913ZM70.6041 6.75613C70.2251 6.7562 69.8547 6.64623 69.5396 6.44013C69.2244 6.23403 68.9788 5.94106 68.8337 5.59826C68.6887 5.25546 68.6506 4.87824 68.7245 4.51428C68.7984 4.15033 68.9808 3.816 69.2487 3.55357C69.5166 3.29113 69.858 3.11239 70.2296 3.03993C70.6013 2.96747 70.9865 3.00456 71.3366 3.1465C71.6868 3.28844 71.986 3.52886 72.1966 3.83735C72.4072 4.14585 72.5197 4.50857 72.5197 4.87964C72.5198 5.12602 72.4702 5.36999 72.374 5.59764C72.2778 5.82528 72.1367 6.03213 71.9588 6.20638C71.7809 6.38063 71.5697 6.51886 71.3373 6.61319C71.1048 6.70752 70.8557 6.75609 70.6041 6.75613ZM72.2549 18.5913H68.9498V8.17933H72.2549V18.5913ZM86.2786 0.00148657H67.2908C66.8598 -0.00327585 66.4445 0.159701 66.1362 0.454603C65.8279 0.749505 65.6517 1.15221 65.6465 1.57421V20.2445C65.6516 20.6668 65.8276 21.0697 66.1359 21.3649C66.4442 21.6602 66.8596 21.8235 67.2908 21.819H86.2786C86.7106 21.8243 87.1272 21.6614 87.4367 21.3662C87.7462 21.071 87.9234 20.6676 87.9294 20.2445V1.57287C87.9232 1.15002 87.7459 0.746863 87.4364 0.451968C87.1268 0.157073 86.7104 -0.00543789 86.2786 0.000138935" fill="#E0E3E4"/>
<path d="M90.4658 18.998C90.0641 19.0018 89.6802 19.1612 89.3982 19.4414C89.1162 19.7215 88.959 20.0996 88.961 20.493C88.9629 20.8864 89.1238 21.263 89.4086 21.5404C89.6933 21.8179 90.0787 21.9737 90.4804 21.9737C90.8821 21.9737 91.2675 21.8179 91.5522 21.5404C91.8369 21.263 91.9979 20.8864 91.9998 20.493C92.0017 20.0996 91.8445 19.7215 91.5625 19.4414C91.2805 19.1612 90.8967 19.0018 90.495 18.998H90.4658ZM90.4658 21.8034C90.2023 21.8077 89.9434 21.7353 89.7219 21.5956C89.5004 21.4558 89.3262 21.2549 89.2213 21.0181C89.1165 20.7814 89.0856 20.5196 89.1327 20.2657C89.1798 20.0118 89.3027 19.7773 89.4859 19.5918C89.6691 19.4064 89.9044 19.2783 90.1619 19.2237C90.4195 19.1692 90.6878 19.1906 90.9329 19.2854C91.178 19.3802 91.3889 19.544 91.5389 19.7561C91.689 19.9682 91.7714 20.2192 91.7758 20.4772C91.7758 20.4846 91.7758 20.4916 91.7758 20.499C91.7831 20.8375 91.6529 21.165 91.4138 21.4094C91.1746 21.6539 90.8461 21.7954 90.5005 21.8027H90.4661" fill="#E0E3E4"/>
</g>
<defs>
<clipPath id="clip0_343_1352">
<rect width="92" height="22" fill="white"/>
</clipPath>
</defs>
</svg>
