<svg width="28" height="28" viewBox="0 0 28 28" fill="none" xmlns="http://www.w3.org/2000/svg">
<path d="M1.925 1.84297L1.83203 1.93594V14V26.0641L1.925 26.157L2.01797 26.25H14H25.982L26.075 26.157L26.168 26.0641V14V1.93594L26.075 1.84297L25.982 1.75H14H2.01797L1.925 1.84297ZM25.5391 4.36133V6.34375H14H2.46094V4.36133V2.37891H14H25.5391V4.36133ZM25.5391 16.2969V25.6211H14H2.46094V16.2969V6.97266H14H25.5391V16.2969Z" fill="#0176D3"/>
<path d="M4.10463 3.73516C3.86401 3.85547 3.72182 4.11524 3.75737 4.3668C3.81752 4.81797 4.2769 5.05586 4.67885 4.84532C4.88666 4.73868 5.00424 4.5418 5.00424 4.30664C5.00151 3.82266 4.5312 3.52461 4.10463 3.73516Z" fill="#0176D3"/>
<path d="M6.74859 3.69141C6.45601 3.77891 6.25914 4.09063 6.30562 4.38868C6.3275 4.55001 6.45054 4.73594 6.59273 4.83165C6.75679 4.93829 7.04117 4.95196 7.2189 4.85899C7.465 4.73047 7.60718 4.43243 7.54703 4.16719C7.465 3.80626 7.09586 3.58751 6.74859 3.69141Z" fill="#0176D3"/>
<path d="M9.2582 3.70233C9.02578 3.78983 8.85352 4.03866 8.85352 4.29023C8.85352 4.55819 8.96563 4.7414 9.19258 4.85624C9.31289 4.9164 9.35938 4.9246 9.51797 4.9164C9.67109 4.90819 9.72578 4.89179 9.82148 4.82343C10.1223 4.61288 10.1961 4.23827 9.99375 3.93476C9.85156 3.71874 9.50703 3.60937 9.2582 3.70233Z" fill="#0176D3"/>
<path d="M15.1377 7.69998C14.826 7.81483 14.6346 8.06912 14.599 8.42186C14.5881 8.53397 14.5771 9.666 14.5717 10.9375L14.5635 13.248L14.6291 13.393C14.7111 13.5816 14.9162 13.7676 15.1021 13.8222C15.2143 13.8551 15.4303 13.8633 16.2506 13.8633C17.358 13.8633 17.3881 13.8605 17.4811 13.7019C17.5713 13.5488 17.5412 13.4394 17.3471 13.2316C17.2486 13.1222 17.1721 12.9664 17.1721 12.8652C17.1721 12.7777 17.2404 12.6191 17.317 12.5316C17.6068 12.2008 18.1537 12.3703 18.2029 12.8078C18.2221 12.9773 18.1729 13.1031 18.0225 13.259C17.9486 13.3355 17.883 13.4312 17.8748 13.4722C17.8529 13.5898 17.9131 13.732 18.0197 13.8031L18.1127 13.866L19.1682 13.8578C20.2018 13.8496 20.2236 13.8496 20.3357 13.7867C20.5162 13.691 20.6365 13.5707 20.7186 13.4039L20.7951 13.248L20.8033 12.5726L20.8115 11.8972L20.8936 11.9273C20.94 11.9437 21.0877 11.9492 21.2271 11.9437C21.5389 11.9273 21.7275 11.848 21.9436 11.6457C22.2197 11.3859 22.3291 11.107 22.3045 10.7269C22.2744 10.2238 21.9354 9.81912 21.4377 9.69061C21.2654 9.64686 20.9756 9.64959 20.858 9.69334C20.817 9.70975 20.8115 9.65506 20.8033 8.99061C20.7951 8.32615 20.7896 8.26053 20.7377 8.14568C20.6557 7.97342 20.5217 7.8285 20.3604 7.74373L20.2209 7.6699L17.7326 7.66443C15.6217 7.65897 15.2279 7.66443 15.1377 7.69998ZM20.1006 8.33709L20.1662 8.38904L20.1799 9.43084L20.1936 10.4726L20.2646 10.541C20.4014 10.6777 20.642 10.6558 20.7568 10.4945C20.9455 10.232 21.383 10.2375 21.5771 10.5082C21.7221 10.7105 21.7084 10.9539 21.5389 11.148C21.3311 11.3859 21.0002 11.3777 20.7678 11.1289C20.6639 11.0168 20.5299 10.9594 20.4314 10.9812C20.3357 11.0058 20.2455 11.066 20.2154 11.1234C20.2045 11.148 20.1881 11.6101 20.1799 12.1488L20.1662 13.1305L20.1006 13.1824C20.0404 13.2316 19.9939 13.2344 19.417 13.2289C18.8154 13.2207 18.799 13.218 18.8127 13.166C18.8209 13.1359 18.8264 12.9883 18.8264 12.8379C18.8264 12.5808 18.8209 12.5508 18.7334 12.373C18.5092 11.9164 18.017 11.6512 17.533 11.7277C17.1475 11.7879 16.8166 12.0422 16.6443 12.4058C16.5705 12.5672 16.5596 12.6219 16.5568 12.8242C16.5568 12.9527 16.565 13.0976 16.576 13.1441L16.5979 13.2344H15.9607C15.4111 13.2344 15.3154 13.2289 15.2607 13.1879L15.1951 13.1441L15.2115 10.7762L15.2307 8.40819L15.299 8.34529L15.3701 8.28514H17.7025C19.9611 8.28514 20.0404 8.28787 20.1006 8.33709Z" fill="#0176D3"/>
<path d="M10.3388 9.1082C9.97512 9.17109 9.62239 9.45 9.45286 9.8082C9.37356 9.97774 9.36536 10.016 9.36536 10.2676C9.36536 10.418 9.37356 10.5738 9.3845 10.6148L9.40637 10.6859L8.72825 10.6969C8.06653 10.7051 8.05012 10.7078 7.90247 10.7762C7.71106 10.8664 7.55794 11.0195 7.4677 11.2109L7.39661 11.3613V13.9863V16.6113L7.47044 16.7672C7.53333 16.9039 7.5388 16.9258 7.50051 16.9559C7.47864 16.975 7.42669 17.0543 7.38841 17.1281L7.31458 17.2676L7.30637 18.0141L7.29817 18.7578L7.22434 18.7387C7.18333 18.725 7.022 18.7168 6.86341 18.7168C6.59817 18.7168 6.56262 18.7223 6.39856 18.8016C6.07044 18.9574 5.84348 19.2172 5.74231 19.5453C5.6302 19.9062 5.69583 20.3109 5.91458 20.609C6.05676 20.8004 6.17434 20.8934 6.42044 21.0082C6.58176 21.0848 6.63098 21.093 6.84973 21.0957C6.98645 21.0957 7.14231 21.0848 7.19973 21.0738L7.30091 21.052V21.7082C7.30091 22.2988 7.30637 22.3809 7.35559 22.5121C7.43489 22.7199 7.57161 22.8676 7.78762 22.9742L7.97083 23.0645H10.5138H13.0568L13.229 22.9852C13.3849 22.9113 13.404 22.9086 13.4478 22.9496C13.4751 22.9742 13.5572 23.0234 13.631 23.0562C13.765 23.1164 13.7868 23.1191 14.5415 23.1137C15.1103 23.1082 15.3126 23.1137 15.3126 23.1383C15.3126 23.1547 15.299 23.2504 15.2825 23.3461C15.1841 23.9066 15.5532 24.4945 16.1138 24.6695C16.874 24.9047 17.6669 24.3414 17.6751 23.5566C17.6779 23.45 17.6669 23.3078 17.6532 23.2367L17.6314 23.1082L18.3368 23.1L19.045 23.0918L19.1927 23.0098C19.2747 22.9633 19.3868 22.8703 19.4443 22.7992C19.6439 22.5449 19.6357 22.7035 19.6275 19.8352L19.6193 17.2676L19.5372 17.1199C19.4388 16.9395 19.2884 16.8082 19.0888 16.7289C18.9466 16.6715 18.8837 16.666 18.2712 16.6578C17.6587 16.6496 17.6068 16.6441 17.6232 16.6031C17.6341 16.5785 17.656 16.4855 17.6724 16.4008C17.7353 16.0672 17.5986 15.6816 17.3251 15.4055C16.6142 14.6973 15.4329 15.0938 15.2798 16.0945C15.2552 16.2477 15.2579 16.3215 15.2907 16.4691L15.3318 16.6523H14.5552H13.7786L13.7841 15.534C13.7923 14.2816 13.795 14.3117 13.5954 14.227C13.4615 14.1723 13.3165 14.216 13.2181 14.3418C13.1798 14.3938 13.0841 14.4648 13.0075 14.5059C12.4115 14.8012 11.8947 14.0082 12.3978 13.568C12.6384 13.3574 12.9993 13.3984 13.2208 13.6637C13.2591 13.7129 13.3411 13.7676 13.3986 13.784C13.4861 13.8113 13.5189 13.8086 13.6091 13.7648C13.8115 13.6637 13.8115 13.6637 13.8032 12.4414C13.795 11.3723 13.795 11.3586 13.7294 11.2191C13.6529 11.0496 13.4478 10.8473 13.2673 10.7652C13.147 10.7105 13.0896 10.7051 12.4197 10.6969C11.7607 10.6887 11.7005 10.6832 11.7169 10.6422C11.7552 10.5438 11.7634 10.1746 11.7306 10.0324C11.6349 9.62774 11.3341 9.29141 10.954 9.16016C10.7681 9.09727 10.522 9.07539 10.3388 9.1082ZM10.7982 9.78633C11.1837 9.98594 11.2302 10.4754 10.8911 10.7598C10.8419 10.798 10.7872 10.8801 10.7708 10.9375C10.7435 11.025 10.7462 11.0578 10.79 11.148C10.8884 11.3449 10.9021 11.3477 12.0286 11.3477C13.0157 11.3477 13.0267 11.3477 13.0896 11.4078C13.1525 11.4652 13.1525 11.4707 13.1525 12.1625C13.1525 12.8133 13.1497 12.857 13.106 12.8379C13.0786 12.827 12.9583 12.8133 12.8353 12.8051C12.3978 12.775 12.0068 12.9664 11.7552 13.3355C11.531 13.6609 11.4927 14.1449 11.665 14.5086C11.7743 14.741 12.0013 14.9652 12.2447 15.0855C12.4415 15.184 12.4661 15.1895 12.7122 15.1895C12.8572 15.1895 13.0157 15.1785 13.065 15.1676L13.1525 15.143V15.8977V16.6496L12.0642 16.6578C10.8474 16.666 10.8665 16.6633 10.7845 16.8629C10.7243 17.0023 10.7572 17.1008 10.924 17.284C11.2083 17.5902 11.1892 17.9129 10.8747 18.1645C10.7927 18.2328 10.7407 18.252 10.6122 18.2602C10.4126 18.2738 10.2896 18.2355 10.172 18.1207C9.91223 17.8691 9.92317 17.5273 10.1966 17.2676C10.3415 17.1281 10.3853 17.0023 10.3279 16.8656C10.2431 16.666 10.2513 16.6687 9.14387 16.6523C8.21966 16.6387 8.1513 16.6359 8.09661 16.5867L8.03919 16.5348V14.0055V11.4734L8.09934 11.4105L8.15676 11.3477H9.11653C10.2021 11.3477 10.224 11.3449 10.3197 11.148C10.388 11.0059 10.347 10.8609 10.213 10.757C10.0927 10.6668 9.98059 10.4426 9.98059 10.2977C9.98333 10.0926 10.1173 9.8875 10.3224 9.78086C10.4372 9.71797 10.6697 9.72344 10.7982 9.78633ZM16.7482 15.7555C16.9286 15.8512 17.0353 16.0344 17.0353 16.2477C17.0353 16.4281 16.9669 16.5785 16.8193 16.718C16.6935 16.841 16.6552 16.9641 16.7072 17.0871C16.7837 17.273 16.7454 17.2648 17.8611 17.2812L18.8728 17.2949L18.9384 17.3715L19.004 17.448V19.8953V22.3426L18.9357 22.4082L18.87 22.4766H17.8966C16.822 22.4766 16.8056 22.4793 16.7181 22.6461C16.6415 22.791 16.6798 22.9168 16.8548 23.1055C17.0189 23.2859 17.0517 23.3734 17.0298 23.5977C17.0107 23.7891 16.904 23.9422 16.7263 24.0242C16.5404 24.109 16.3982 24.109 16.2177 24.0187C16.0236 23.9203 15.9333 23.7836 15.9197 23.5566C15.906 23.3516 15.9443 23.2641 16.1357 23.059C16.2833 22.9031 16.3079 22.7937 16.2286 22.6406C16.1439 22.4793 16.1302 22.4766 14.949 22.4766C14.063 22.4766 13.8634 22.4684 13.8197 22.4383C13.7704 22.4027 13.7677 22.3562 13.7595 21.7246L13.7513 21.0492L13.8552 21.0711C14.0493 21.1176 14.4376 21.0957 14.6017 21.0328C14.9025 20.9152 15.1704 20.6473 15.2907 20.3437C15.34 20.2207 15.3509 20.1387 15.3536 19.8898C15.3536 19.5973 15.3509 19.5836 15.2525 19.384C15.1267 19.127 14.9189 18.9246 14.6646 18.8043C14.5087 18.7332 14.4376 18.7168 14.2325 18.7086C14.0958 18.7031 13.94 18.7086 13.8825 18.725L13.7814 18.7523V18.0168V17.2812H14.9325H16.0837L16.1767 17.1883C16.2478 17.1172 16.2697 17.0734 16.2697 16.9969C16.2697 16.8684 16.215 16.7645 16.1111 16.6879C15.9962 16.6031 15.9142 16.4199 15.9142 16.2449C15.9142 15.8184 16.3626 15.5559 16.7482 15.7555ZM8.82122 17.3086H9.40637L9.38723 17.3824C9.37356 17.4262 9.36536 17.582 9.36536 17.7352C9.36536 17.9949 9.37083 18.0195 9.46653 18.2137C9.64973 18.5855 9.97239 18.8289 10.3716 18.8973C10.8857 18.982 11.4216 18.6895 11.6568 18.1918C11.7333 18.025 11.7415 17.9812 11.7443 17.7461C11.7443 17.6039 11.7361 17.4453 11.7251 17.3961L11.706 17.3086L12.3458 17.3031C12.6986 17.3004 13.0212 17.2977 13.0595 17.2977L13.1306 17.2949L13.1251 18.375L13.1224 19.4578L13.1853 19.5508C13.2618 19.6629 13.3986 19.7176 13.5189 19.6848C13.5654 19.6711 13.6583 19.6055 13.7267 19.5398C13.9345 19.332 14.1669 19.2801 14.3966 19.384C14.8259 19.5781 14.8478 20.1687 14.4376 20.3984C14.1997 20.5297 13.8525 20.4559 13.7157 20.248C13.6529 20.1551 13.497 20.0895 13.3849 20.1086C13.3384 20.1195 13.2618 20.1633 13.2181 20.2098L13.1388 20.2918L13.1251 21.3062L13.1115 22.318L13.0458 22.3699C12.9857 22.4191 12.9036 22.4219 10.522 22.4219H8.0638L7.99817 22.3535L7.92981 22.2879V21.3117C7.92981 20.2262 7.92981 20.2234 7.74387 20.1359C7.60716 20.073 7.48411 20.1059 7.36106 20.2371C7.12317 20.4941 6.82786 20.5406 6.55989 20.3656C6.45325 20.2918 6.31653 20.0457 6.31653 19.9227C6.31653 19.5098 6.73216 19.2199 7.1013 19.373C7.15598 19.3977 7.26536 19.477 7.34466 19.5508C7.47591 19.6738 7.50051 19.6875 7.61536 19.6875C7.72473 19.6875 7.75755 19.6738 7.83684 19.5945L7.92981 19.5016V18.4762C7.92981 17.4918 7.93255 17.4508 7.9845 17.3824C8.03919 17.3141 8.12669 17.2785 8.19778 17.2977C8.21966 17.3031 8.49856 17.3086 8.82122 17.3086Z" fill="#0176D3"/>
</svg>
