<svg width="64" height="64" viewBox="0 0 64 64" fill="none" xmlns="http://www.w3.org/2000/svg">
<g clip-path="url(#clip0_343_1338)">
<path d="M62.6667 0H1.33333C0.596954 0 0 0.596954 0 1.33333V62.6667C0 63.403 0.596954 64 1.33333 64H62.6667C63.403 64 64 63.403 64 62.6667V1.33333C64 0.596954 63.403 0 62.6667 0Z" fill="#032E61"/>
<path fill-rule="evenodd" clip-rule="evenodd" d="M28.6458 8.38674C29.9354 7.04321 31.7321 6.20889 33.7182 6.20889C36.3583 6.20889 38.6625 7.68154 39.8892 9.86767C40.9867 9.37741 42.1754 9.12467 43.3775 9.12614C48.1398 9.12614 52 13.0207 52 17.8258C52 22.6309 48.1398 26.5255 43.3775 26.5255C42.7952 26.5255 42.2274 26.4673 41.6784 26.3566C40.5983 28.2829 38.5387 29.5849 36.1759 29.5849C35.1868 29.5849 34.251 29.3575 33.4186 28.9501C32.3231 31.527 29.7714 33.333 26.7979 33.333C23.7015 33.333 21.0618 31.373 20.049 28.6251C19.5978 28.7203 19.1379 28.7683 18.6767 28.7681C14.9893 28.7685 12 25.7481 12 22.0219C11.9973 20.841 12.304 19.6801 12.8898 18.6547C13.4756 17.6294 14.3198 16.7755 15.3384 16.1782C14.9158 15.2044 14.6984 14.154 14.6997 13.0925C14.6997 8.80674 18.178 5.33301 22.4687 5.33301C23.664 5.33162 24.8434 5.60651 25.9149 6.13623C26.9864 6.66596 27.921 7.43621 28.6458 8.38674Z" fill="#00A1E0"/>
<path fill-rule="evenodd" clip-rule="evenodd" d="M17.7906 19.8536L17.9525 19.4043C17.9783 19.3273 18.0365 19.3527 18.0601 19.3671C18.1052 19.3938 18.1375 19.4179 18.1957 19.452C18.6726 19.7534 19.1144 19.7565 19.2522 19.7565C19.6092 19.7565 19.8305 19.5675 19.8305 19.3124V19.2993C19.8305 19.022 19.4893 18.917 19.0952 18.7962L19.0076 18.7682C18.4665 18.6142 17.8877 18.3915 17.8877 17.7064V17.6924C17.8877 17.0422 18.4122 16.5886 19.163 16.5886L19.2452 16.5877C19.6862 16.5877 20.1122 16.7159 20.4211 16.9031C20.4491 16.9206 20.4762 16.953 20.4605 16.9959L20.2942 17.4452C20.265 17.5218 20.1849 17.471 20.1849 17.471C19.8626 17.3031 19.5061 17.2116 19.1428 17.2037C18.8244 17.2037 18.6196 17.3726 18.6196 17.6018V17.6162C18.6196 17.8836 18.9704 17.9978 19.3773 18.1303L19.4473 18.1522C19.9867 18.3228 20.5624 18.559 20.5624 19.2088V19.2223C20.5624 19.9245 20.0523 20.3607 19.2321 20.3607C18.8292 20.3607 18.4438 20.2986 18.036 20.082C17.959 20.0374 17.8829 19.9989 17.8077 19.9442C17.7998 19.9328 17.7657 19.9192 17.7906 19.8536ZM29.8022 19.8536L29.9645 19.4043C29.9881 19.3308 30.0568 19.358 30.0717 19.3671C30.1163 19.3947 30.1496 19.4179 30.2073 19.452C30.685 19.7534 31.126 19.7565 31.2651 19.7565C31.6208 19.7565 31.8426 19.5675 31.8426 19.3124V19.2993C31.8426 19.022 31.5017 18.917 31.1076 18.7962L31.0201 18.7682C30.4781 18.6142 29.8993 18.3915 29.8993 17.7064V17.6924C29.8993 17.0422 30.4243 16.5886 31.175 16.5886L31.2568 16.5877C31.6978 16.5877 32.1243 16.7159 32.4335 16.9031C32.4607 16.9206 32.4882 16.953 32.4729 16.9959C32.4576 17.0357 32.3211 17.4032 32.3067 17.4452C32.2765 17.5218 32.1974 17.471 32.1974 17.471C31.875 17.303 31.5182 17.2116 31.1548 17.2037C30.8364 17.2037 30.6316 17.3726 30.6316 17.6018V17.6162C30.6316 17.8836 30.982 17.9978 31.3893 18.1303L31.4593 18.1522C31.9987 18.3228 32.574 18.559 32.574 19.2088V19.2223C32.574 19.9245 32.0644 20.3607 31.2441 20.3607C30.8408 20.3607 30.4553 20.2986 30.048 20.082C29.971 20.0374 29.895 19.9989 29.8192 19.9442C29.8114 19.9328 29.7768 19.9192 29.8022 19.8536ZM38.6872 17.741C38.7546 17.9667 38.7878 18.2148 38.7878 18.4768C38.7878 18.7393 38.7546 18.9865 38.6872 19.2122C38.6256 19.4299 38.5198 19.6326 38.3766 19.8077C38.233 19.9777 38.0529 20.1132 37.8499 20.204C37.6399 20.3003 37.3932 20.3484 37.1157 20.3484C36.8384 20.3484 36.5908 20.3003 36.3817 20.204C36.1786 20.1132 35.9986 19.9777 35.855 19.8077C35.7119 19.6326 35.606 19.4302 35.5439 19.2127C35.4751 18.9735 35.4413 18.7256 35.4433 18.4768C35.4433 18.2143 35.477 17.9667 35.5439 17.741C35.6113 17.5134 35.7159 17.313 35.8545 17.146C35.9985 16.9752 36.1786 16.8386 36.3817 16.746C36.5913 16.648 36.8375 16.5986 37.1157 16.5986C37.394 16.5986 37.6403 16.648 37.8499 16.746C38.059 16.8436 38.2365 16.978 38.3766 17.146C38.5157 17.313 38.6207 17.5134 38.6872 17.741ZM38.003 18.4768C38.003 18.08 37.9295 17.768 37.7833 17.5493C37.639 17.3323 37.4203 17.2273 37.1157 17.2273C36.8113 17.2273 36.5943 17.3323 36.4517 17.5493C36.3086 17.768 36.2356 18.08 36.2356 18.4768C36.2356 18.8732 36.3086 19.1873 36.4525 19.4078C36.5943 19.6274 36.8113 19.7338 37.1157 19.7338C37.4203 19.7338 37.639 19.627 37.7833 19.4078C37.9286 19.1873 38.003 18.8732 38.003 18.4768ZM44.3121 19.6274L44.4802 20.092C44.502 20.149 44.4525 20.1739 44.4525 20.1739C44.1931 20.2745 43.8331 20.3462 43.4827 20.3462C42.8886 20.3462 42.4336 20.1752 42.13 19.8374C41.8282 19.5006 41.6742 19.0425 41.6742 18.4742C41.6742 18.2112 41.7123 17.9623 41.7866 17.737C41.861 17.5095 41.9725 17.3091 42.1195 17.142C42.2721 16.9702 42.4604 16.8337 42.6712 16.7421C42.8899 16.6446 43.1472 16.5956 43.4342 16.5956C43.628 16.5956 43.8003 16.6074 43.9481 16.6292C44.1061 16.6538 44.3165 16.7106 44.4053 16.7452C44.4215 16.7513 44.4665 16.7732 44.4482 16.8261C44.3834 17.0086 44.3393 17.1276 44.2794 17.2938C44.2531 17.3647 44.1997 17.341 44.1997 17.341C43.9744 17.2702 43.7583 17.2378 43.4761 17.2378C43.1371 17.2378 42.8825 17.3507 42.7163 17.5716C42.5483 17.7943 42.4542 18.0861 42.4529 18.4742C42.4516 18.8999 42.5583 19.2153 42.7473 19.4104C42.9359 19.6051 43.1992 19.7036 43.5308 19.7036C43.6651 19.7036 43.792 19.6948 43.9062 19.6769C44.019 19.659 44.1249 19.624 44.2246 19.585C44.2246 19.585 44.2889 19.561 44.3121 19.6274ZM47.8163 17.6119C47.9654 18.1342 47.8876 18.5853 47.885 18.6102C47.8793 18.6698 47.818 18.6706 47.818 18.6706L45.4999 18.6689C45.5143 19.021 45.5988 19.2704 45.7694 19.4398C45.9369 19.6056 46.2029 19.7119 46.563 19.7123C47.1133 19.7136 47.3481 19.603 47.5149 19.5412C47.5149 19.5412 47.5783 19.5185 47.6023 19.5815L47.7533 20.0063C47.7839 20.0776 47.7594 20.1026 47.7336 20.117C47.5883 20.197 47.2362 20.3467 46.566 20.3484C46.241 20.3498 45.9579 20.3034 45.7248 20.2128C45.5032 20.1308 45.3035 19.9985 45.1415 19.8265C44.9867 19.6577 44.8717 19.4563 44.8051 19.2372C44.7334 18.9971 44.6981 18.7475 44.7006 18.497C44.7006 18.2344 44.7343 17.985 44.8021 17.7571C44.8699 17.5274 44.9754 17.3249 45.1158 17.1547C45.2613 16.981 45.4438 16.842 45.65 16.7478C45.8626 16.6476 46.1259 16.5986 46.4155 16.5986C46.6636 16.5986 46.8902 16.652 47.0787 16.7334C47.2239 16.7955 47.37 16.908 47.5197 17.069C47.6141 17.1704 47.7581 17.3927 47.8163 17.6119ZM45.5108 18.0962H47.1644C47.1474 17.8836 47.1058 17.6928 47.0104 17.5493C46.8652 17.3323 46.6648 17.2129 46.3608 17.2129C46.0564 17.2129 45.8402 17.3323 45.6972 17.5493C45.6036 17.6928 45.5436 17.8757 45.5108 18.0962ZM29.2479 17.6119C29.3966 18.1342 29.3201 18.5853 29.3175 18.6102C29.3114 18.6698 29.2501 18.6706 29.2501 18.6706L26.9315 18.6689C26.9464 19.021 27.0304 19.2704 27.2014 19.4398C27.369 19.6056 27.6346 19.7119 27.9945 19.7123C28.5449 19.7136 28.7807 19.603 28.9469 19.5412C28.9469 19.5412 29.0104 19.5185 29.0339 19.5815L29.1854 20.0063C29.216 20.0776 29.1915 20.1026 29.1661 20.117C29.0199 20.197 28.6674 20.3467 27.9981 20.3484C27.6726 20.3498 27.3896 20.3034 27.1568 20.2128C26.9352 20.1306 26.7355 19.9984 26.5732 19.8265C26.4188 19.6576 26.3042 19.4562 26.2377 19.2372C26.1654 18.9972 26.1299 18.7476 26.1323 18.497C26.1323 18.2344 26.1664 17.985 26.2338 17.7571C26.2968 17.5372 26.4036 17.3323 26.5478 17.1547C26.6934 16.9811 26.8757 16.8422 27.0816 16.7478C27.295 16.6476 27.5584 16.5986 27.8471 16.5986C28.0753 16.5981 28.3013 16.6439 28.5112 16.7334C28.6564 16.7955 28.8026 16.908 28.9518 17.069C29.0462 17.1704 29.1902 17.3927 29.2479 17.6119ZM26.942 18.0962H28.5965C28.579 17.8836 28.5375 17.6928 28.4426 17.5493C28.2982 17.3323 28.097 17.2129 27.7929 17.2129C27.4884 17.2129 27.2719 17.3323 27.1297 17.5493C27.0352 17.6928 26.9757 17.8757 26.942 18.0962ZM22.8534 17.9855C22.8534 17.9855 23.0363 18.0017 23.2358 18.0306V17.9326C23.2358 17.6232 23.1715 17.4776 23.045 17.38C22.9156 17.2811 22.7222 17.23 22.472 17.23C22.472 17.23 21.9076 17.223 21.4614 17.4653C21.4408 17.4776 21.4238 17.4846 21.4238 17.4846C21.4238 17.4846 21.3678 17.5042 21.3477 17.447L21.1836 17.006C21.1582 16.9425 21.2042 16.9136 21.2042 16.9136C21.4128 16.7509 21.9186 16.6524 21.9186 16.6524C22.1238 16.6164 22.3318 16.5972 22.5402 16.5951C23.003 16.5951 23.3614 16.7028 23.605 16.9158C23.8491 17.1298 23.9734 17.4745 23.9734 17.9391L23.9747 20.0601C23.9747 20.0601 23.9795 20.1214 23.9213 20.1354C23.9213 20.1354 23.836 20.159 23.7594 20.177C23.682 20.1949 23.4029 20.2518 23.175 20.2902C22.9422 20.3292 22.7066 20.3488 22.4706 20.3489C22.2454 20.3489 22.0389 20.3279 21.8569 20.2863C21.6873 20.2508 21.5267 20.1811 21.3848 20.0816C21.2556 19.9877 21.1518 19.863 21.083 19.7189C21.0117 19.5732 20.9758 19.3951 20.9758 19.1895C20.9758 18.9878 21.0182 18.808 21.1 18.6549C21.1823 18.5026 21.2952 18.3736 21.4369 18.2725C21.5834 18.1694 21.747 18.0934 21.9203 18.048C22.101 18 22.293 17.975 22.4916 17.975C22.6373 17.975 22.759 17.978 22.8534 17.9855ZM21.9308 19.6148C21.9295 19.6143 22.1386 19.7788 22.6106 19.75C22.9422 19.7298 23.2362 19.6668 23.2362 19.6668V18.6124C23.2362 18.6124 22.9396 18.5639 22.6067 18.559C22.1347 18.5534 21.9334 18.727 21.9348 18.7266C21.7956 18.8255 21.7278 18.972 21.7278 19.175C21.7278 19.305 21.751 19.4065 21.7978 19.4774C21.8272 19.5242 21.8398 19.5417 21.9308 19.6148ZM41.5535 16.7907C41.5316 16.8541 41.4191 17.1718 41.3785 17.2772C41.3636 17.3174 41.3391 17.345 41.294 17.3402C41.294 17.3402 41.1611 17.3096 41.0394 17.3096C40.9559 17.3096 40.8365 17.32 40.7288 17.3533C40.6209 17.3865 40.5227 17.4455 40.4428 17.5252C40.3579 17.607 40.2892 17.7221 40.2393 17.8665C40.1886 18.0118 40.1623 18.2428 40.1623 18.4746V20.2019C40.1623 20.2111 40.1606 20.2202 40.1571 20.2288C40.1536 20.2374 40.1485 20.2451 40.142 20.2516C40.1355 20.2582 40.1277 20.2634 40.1192 20.267C40.1107 20.2705 40.1016 20.2723 40.0923 20.2723H39.4838C39.4745 20.2724 39.4653 20.2707 39.4566 20.2672C39.4479 20.2638 39.4401 20.2587 39.4334 20.2522C39.4268 20.2457 39.4214 20.2379 39.4178 20.2294C39.4141 20.2208 39.4121 20.2116 39.4121 20.2023V16.7439C39.4121 16.705 39.4405 16.6739 39.4794 16.6739H40.0731C40.1124 16.6739 40.1404 16.705 40.1404 16.7439V17.0265C40.2292 16.9075 40.3885 16.8025 40.5324 16.7378C40.6768 16.6721 40.8382 16.624 41.13 16.6415C41.2818 16.6507 41.4791 16.6922 41.5189 16.7076C41.5267 16.7107 41.5338 16.7153 41.5398 16.7212C41.5457 16.7271 41.5504 16.7341 41.5537 16.7418C41.5569 16.7496 41.5585 16.7579 41.5585 16.7663C41.5584 16.7747 41.5567 16.783 41.5535 16.7907ZM35.8358 15.1881C35.852 15.1947 35.8961 15.2161 35.8786 15.2686L35.7006 15.7556C35.6857 15.7923 35.6761 15.8142 35.6004 15.7914C35.5003 15.76 35.396 15.7437 35.2911 15.7433C35.1992 15.7433 35.1161 15.7551 35.0426 15.7796C34.9691 15.8032 34.9024 15.8443 34.8483 15.8995C34.7765 15.969 34.7209 16.0536 34.6856 16.1471C34.6004 16.3921 34.5676 16.6533 34.5632 16.67H35.3042C35.3667 16.67 35.3865 16.6988 35.3804 16.7448L35.2938 17.2269C35.2798 17.2969 35.2163 17.2942 35.2163 17.2942H34.4525L33.9306 20.25C33.8857 20.5151 33.8175 20.7757 33.7267 21.0288C33.6449 21.2427 33.5605 21.3989 33.4249 21.548C33.3091 21.6816 33.1619 21.7841 32.9966 21.8464C32.836 21.9055 32.6409 21.9357 32.4279 21.9357C32.3264 21.9357 32.217 21.9335 32.088 21.9029C32.016 21.8864 31.9452 21.8657 31.8757 21.8408C31.8473 21.8307 31.8242 21.7944 31.8408 21.748C31.8566 21.702 31.9939 21.3262 32.0123 21.2768C32.0359 21.2173 32.0963 21.24 32.0963 21.24C32.1374 21.2576 32.1663 21.269 32.221 21.2799C32.2765 21.2908 32.3509 21.3004 32.4073 21.3004C32.5084 21.3004 32.6002 21.2882 32.6803 21.261C32.7766 21.23 32.8334 21.1736 32.892 21.0983C32.9533 21.0191 33.0032 20.912 33.0544 20.768C33.1055 20.6223 33.1523 20.4298 33.1925 20.1966L33.7123 17.2947H33.2004C33.1392 17.2947 33.1182 17.2658 33.1252 17.2194L33.2109 16.7373C33.2245 16.6673 33.2897 16.67 33.2897 16.67H33.8151L33.8435 16.5133C33.9223 16.0478 34.0784 15.6939 34.3094 15.4616C34.5417 15.2275 34.872 15.1094 35.2911 15.1094C35.4109 15.1094 35.5168 15.1172 35.6065 15.1334C35.6944 15.15 35.7614 15.1654 35.8358 15.1881ZM25.4782 20.2019C25.4782 20.2412 25.4511 20.2723 25.4118 20.2723H24.7971C24.7578 20.2723 24.731 20.2408 24.731 20.2023V15.2529C24.731 15.2148 24.7582 15.1833 24.7967 15.1833H25.4118C25.4511 15.1833 25.4782 15.2148 25.4782 15.2533V20.2019Z" fill="white"/>
<path d="M16.0938 44.0703V46H14.832V40.3984H16.8086C18.2201 40.3984 18.9258 40.9934 18.9258 42.1836C18.9258 42.746 18.7227 43.2018 18.3164 43.5508C17.9128 43.8971 17.3724 44.0703 16.6954 44.0703H16.0938ZM16.0938 41.3672V43.1132H16.5899C17.2618 43.1132 17.5977 42.819 17.5977 42.2304C17.5977 41.6549 17.2618 41.3672 16.5899 41.3672H16.0938ZM24.1954 46H22.8204L22.4219 44.7539H20.4297L20.0352 46H18.668L20.707 40.3984H22.2032L24.1954 46ZM22.1328 43.7851L21.5313 41.9023C21.487 41.7617 21.4558 41.5937 21.4375 41.3984H21.4063C21.3932 41.5625 21.3607 41.7252 21.3086 41.8867L20.6992 43.7851H22.1328ZM29.5938 46H28.1446L27.2735 44.5586C27.2084 44.4492 27.1459 44.3515 27.086 44.2656C27.0261 44.1796 26.9649 44.1068 26.9024 44.0468C26.8425 43.9844 26.7787 43.9374 26.711 43.9062C26.6459 43.8724 26.5742 43.8554 26.4961 43.8554H26.1563V46H24.8946V40.3984H26.8946C28.254 40.3984 28.9336 40.9062 28.9336 41.9218C28.9336 42.1172 28.9037 42.2982 28.8438 42.4648C28.7839 42.6289 28.6992 42.7773 28.5899 42.9101C28.4805 43.043 28.3477 43.1575 28.1914 43.2539C28.0378 43.3502 27.8659 43.4258 27.6758 43.4804V43.496C27.7592 43.5221 27.8399 43.5651 27.918 43.625C27.9961 43.6822 28.0716 43.75 28.1446 43.8281C28.2175 43.9062 28.2865 43.9908 28.3516 44.082C28.4193 44.1706 28.4805 44.2578 28.5352 44.3437L29.5938 46ZM26.1563 41.3437V42.9023H26.7032C26.974 42.9023 27.1914 42.8242 27.3555 42.668C27.5222 42.5091 27.6055 42.3125 27.6055 42.0781C27.6055 41.5885 27.3126 41.3437 26.7266 41.3437H26.1563ZM33.8906 41.4258H32.293V46H31.0274V41.4258H29.4375V40.3984H33.8906V41.4258ZM39.6836 46H38.4102L36.1016 42.4804C35.9662 42.2747 35.8724 42.1198 35.8204 42.0156H35.8047C35.8256 42.2135 35.836 42.5156 35.836 42.9218V46H34.6446V40.3984H36.004L38.2266 43.8086C38.3282 43.9622 38.4219 44.1146 38.5078 44.2656H38.5235C38.5026 44.1354 38.4922 43.8789 38.4922 43.496V40.3984H39.6836V46ZM44.3242 46H40.9649V40.3984H44.1954V41.4258H42.2266V42.6718H44.0586V43.6953H42.2266V44.9765H44.3242V46ZM49.9219 46H48.4727L47.6016 44.5586C47.5365 44.4492 47.474 44.3515 47.4141 44.2656C47.3542 44.1796 47.293 44.1068 47.2305 44.0468C47.1706 43.9844 47.1068 43.9374 47.0391 43.9062C46.974 43.8724 46.9024 43.8554 46.8242 43.8554H46.4844V46H45.2227V40.3984H47.2227C48.582 40.3984 49.2618 40.9062 49.2618 41.9218C49.2618 42.1172 49.2318 42.2982 49.1719 42.4648C49.112 42.6289 49.0274 42.7773 48.918 42.9101C48.8086 43.043 48.6758 43.1575 48.5196 43.2539C48.3659 43.3502 48.194 43.4258 48.004 43.4804V43.496C48.0873 43.5221 48.168 43.5651 48.2461 43.625C48.3242 43.6822 48.3998 43.75 48.4727 43.8281C48.5456 43.9062 48.6146 43.9908 48.6797 44.082C48.7474 44.1706 48.8086 44.2578 48.8633 44.3437L49.9219 46ZM46.4844 41.3437V42.9023H47.0313C47.3021 42.9023 47.5196 42.8242 47.6836 42.668C47.8503 42.5091 47.9336 42.3125 47.9336 42.0781C47.9336 41.5885 47.6406 41.3437 47.0547 41.3437H46.4844ZM30.4961 56.6666H29.25V53.3151C29.25 52.9531 29.2656 52.5534 29.2969 52.1158H29.2656C29.2006 52.4596 29.142 52.707 29.0899 52.858L27.7774 56.6666H26.7461L25.4102 52.8971C25.3737 52.7956 25.3152 52.5351 25.2344 52.1158H25.1992C25.2331 52.668 25.25 53.1523 25.25 53.569V56.6666H24.1133V51.0651H25.961L27.1055 54.3854C27.1966 54.651 27.263 54.918 27.3047 55.1862H27.3282C27.3985 54.8763 27.4727 54.6068 27.5508 54.3776L28.6954 51.0651H30.4961V56.6666ZM31.5118 56.4518V55.2018C31.7383 55.3919 31.9844 55.5351 32.25 55.6315C32.5156 55.7252 32.7839 55.7721 33.0547 55.7721C33.2136 55.7721 33.3516 55.7578 33.4688 55.7292C33.5886 55.7005 33.6875 55.6614 33.7656 55.612C33.8464 55.5598 33.9063 55.5 33.9454 55.4322C33.9844 55.362 34.004 55.2864 34.004 55.2057C34.004 55.0963 33.9727 54.9986 33.9102 54.9127C33.8477 54.8268 33.7618 54.7474 33.6524 54.6744C33.5456 54.6015 33.418 54.5312 33.2696 54.4635C33.1211 54.3958 32.961 54.3268 32.7891 54.2565C32.3516 54.0742 32.0248 53.8515 31.8086 53.5885C31.5951 53.3255 31.4883 53.0078 31.4883 52.6354C31.4883 52.3437 31.5469 52.0937 31.6641 51.8854C31.7813 51.6744 31.9402 51.5013 32.1406 51.3658C32.3438 51.2304 32.5782 51.1315 32.8438 51.069C33.1094 51.0039 33.3906 50.9713 33.6875 50.9713C33.9792 50.9713 34.237 50.9896 34.461 51.026C34.6875 51.0598 34.8959 51.1132 35.086 51.1862V52.3541C34.9922 52.289 34.8894 52.2318 34.7774 52.1822C34.668 52.1328 34.5547 52.0924 34.4375 52.0612C34.3204 52.0273 34.2032 52.0026 34.086 51.987C33.9714 51.9713 33.862 51.9635 33.7578 51.9635C33.6146 51.9635 33.4844 51.9778 33.3672 52.0065C33.25 52.0325 33.1511 52.0703 33.0704 52.1198C32.9896 52.1692 32.9271 52.2292 32.8828 52.2994C32.8386 52.3672 32.8164 52.444 32.8164 52.5299C32.8164 52.6236 32.8412 52.7083 32.8906 52.7838C32.9402 52.8568 33.0104 52.927 33.1016 52.9948C33.1928 53.0598 33.3034 53.125 33.4336 53.1901C33.5638 53.2526 33.711 53.3177 33.875 53.3854C34.099 53.4792 34.2995 53.5794 34.4766 53.6862C34.6563 53.7903 34.8099 53.9088 34.9375 54.0416C35.0652 54.1744 35.1628 54.3268 35.2305 54.4986C35.2982 54.668 35.332 54.8658 35.332 55.0924C35.332 55.4049 35.2722 55.668 35.1524 55.8815C35.0352 56.0924 34.875 56.2643 34.6719 56.3971C34.4688 56.5273 34.2318 56.621 33.961 56.6784C33.6928 56.7356 33.4089 56.7643 33.1094 56.7643C32.8021 56.7643 32.5092 56.7382 32.2305 56.6862C31.9544 56.6341 31.7149 56.556 31.5118 56.4518ZM37.5156 54.737V56.6666H36.254V51.0651H38.2305C39.642 51.0651 40.3477 51.6601 40.3477 52.8502C40.3477 53.4127 40.1446 53.8684 39.7383 54.2174C39.3347 54.5638 38.7943 54.737 38.1172 54.737H37.5156ZM37.5156 52.0338V53.7799H38.0118C38.6836 53.7799 39.0196 53.4856 39.0196 52.8971C39.0196 52.3216 38.6836 52.0338 38.0118 52.0338H37.5156Z" fill="white"/>
</g>
<defs>
<clipPath id="clip0_343_1338">
<rect width="64" height="64" fill="white"/>
</clipPath>
</defs>
</svg>
