<svg width="48" height="48" viewBox="0 0 48 48" fill="none" xmlns="http://www.w3.org/2000/svg">
<path d="M1.73438 1.73438L1.5 1.95937V21V40.0406L1.73438 40.2656C1.95 40.4906 2.00625 40.5 3.23438 40.5H4.5V41.7656C4.5 42.9937 4.50938 43.05 4.73438 43.2656C4.95 43.4906 5.00625 43.5 6.23438 43.5H7.5V44.7656C7.5 45.9937 7.50938 46.05 7.73438 46.2656L7.95938 46.5H22.5H37.0406L37.2656 46.2656C37.4813 46.0594 37.5 45.9656 37.5 45.1406V44.25H36.75H36V44.625V45H22.5H9V30.375V15.75H12.1406H15.2906L15.5156 15.5156L15.75 15.2906V12.1406V9H25.875H36V15V21H36.75H37.5V14.4844V7.95937L37.2656 7.73438C37.05 7.50937 36.9938 7.5 35.7656 7.5H34.5V6.23438C34.5 5.00625 34.4906 4.95 34.2656 4.73438C34.05 4.50937 33.9938 4.5 32.7656 4.5H31.5V3.23438C31.5 2.00625 31.4906 1.95 31.2656 1.73438L31.0406 1.5H16.5H1.95938L1.73438 1.73438ZM30 3.75V4.5H17.4844H4.95938L4.73438 4.73438L4.5 4.95937V21.9844V39H3.75H3V21V3H16.5H30V3.75ZM33 6.75V7.5H23.8406H14.6719L11.0906 11.0906L7.5 14.6719V28.3406V42H6.75H6V24V6H19.5H33V6.75ZM14.25 12.1875V14.25H12.1688H10.0781L12.1406 12.1875C13.275 11.0531 14.2125 10.125 14.2219 10.125C14.2406 10.125 14.25 11.0531 14.25 12.1875Z" fill="#0176D3"/>
<path d="M18 15V15.75H25.875H33.75V15V14.25H25.875H18V15Z" fill="#0176D3"/>
<path d="M11.25 18.75V19.5H22.5H33.75V18.75V18H22.5H11.25V18.75Z" fill="#0176D3"/>
<path d="M11.25 22.5V23.25H18.75H26.25V22.5V21.75H18.75H11.25V22.5Z" fill="#0176D3"/>
<path d="M31.1428 22.6499C25.4615 23.6812 21.674 29.0906 22.649 34.7906C23.8397 41.7656 31.5647 45.5812 37.8459 42.2906L38.5678 41.9062L40.7334 44.0531C42.599 45.8999 42.9553 46.2093 43.349 46.3499C44.2584 46.6499 45.1209 46.4531 45.7865 45.7874C46.4522 45.1218 46.649 44.2593 46.349 43.3499C46.2084 42.9562 45.899 42.5999 44.0522 40.7343L41.9053 38.5687L42.2897 37.8468C43.0303 36.4312 43.3865 35.0906 43.4709 33.4218C43.724 28.1999 39.9647 23.5312 34.7897 22.6499C33.7397 22.4718 32.099 22.4718 31.1428 22.6499ZM35.1647 24.2718C38.474 25.1343 40.9397 27.6468 41.7834 30.9937C42.0272 31.9593 41.999 34.2093 41.7365 35.1656C40.8272 38.5124 38.3334 40.9499 35.0053 41.7843C34.0865 42.0093 31.9678 42.0093 31.0303 41.7843C29.3334 41.3718 27.9928 40.6312 26.7553 39.4218C25.0303 37.7249 24.149 35.8031 24.0272 33.4218C23.8959 30.8437 24.8053 28.5187 26.6615 26.6624C28.0115 25.3218 29.5678 24.4874 31.3959 24.1406C32.3709 23.9531 34.2178 24.0187 35.1647 24.2718ZM43.0115 41.8406C44.7834 43.6218 44.999 43.8749 44.999 44.1468C44.999 44.5687 44.5678 44.9999 44.1459 44.9999C43.8647 44.9999 43.6209 44.7937 41.8303 43.0031L39.8334 41.0062L40.3772 40.4437C40.6772 40.1249 40.9397 39.8624 40.9678 39.8531C40.9959 39.8531 41.9147 40.7437 43.0115 41.8406Z" fill="#0176D3"/>
<path d="M31.7349 25.6031C29.663 26.0063 27.938 27.1313 26.813 28.7906C25.9036 30.1125 25.5567 31.3031 25.5567 33C25.5474 35.1094 26.2599 36.8438 27.7036 38.2969C29.1474 39.7406 30.8911 40.4531 33.0005 40.4531C35.1099 40.4531 36.8536 39.7406 38.2974 38.2969C39.7411 36.8531 40.4536 35.1094 40.4536 33C40.4536 31.3688 40.1161 30.2063 39.2911 28.95C38.2224 27.3188 36.7411 26.25 34.7817 25.7156C34.1442 25.5469 32.363 25.4813 31.7349 25.6031ZM34.2661 27.1406C37.1067 27.7313 39.1317 30.4125 38.9724 33.3375C38.888 34.8469 38.3067 36.1219 37.2192 37.2188C36.5067 37.9219 35.8317 38.3531 34.8567 38.7C34.2661 38.9063 34.0224 38.9438 33.0474 38.9531C32.138 38.9531 31.8005 38.9156 31.2661 38.7469C28.7536 37.95 27.0005 35.5875 27.0005 33C27.0005 30.7781 28.3224 28.6406 30.2817 27.6656C31.5849 27.0281 32.8974 26.85 34.2661 27.1406Z" fill="#0176D3"/>
<path d="M31.8743 28.6501C31.593 28.7251 31.3305 28.8188 31.2836 28.8657C31.2461 28.9032 31.3399 29.2219 31.4993 29.5688C31.7524 30.1313 31.818 30.1969 31.9961 30.1501C32.1086 30.1126 32.3805 30.0657 32.6055 30.0376L32.9993 29.9719V29.2407V28.5001L32.6993 28.5094C32.5305 28.5094 32.1555 28.5751 31.8743 28.6501Z" fill="#0176D3"/>
<path d="M29.4838 30.1968C28.0963 31.8468 28.2088 34.4437 29.7463 36.0655C30.0088 36.3374 30.2526 36.553 30.2901 36.5437C30.3369 36.5249 30.5526 36.2624 30.7776 35.9624L31.1901 35.4093L30.8526 35.0718C29.8588 34.078 29.7369 32.4562 30.5807 31.2374L30.8619 30.8249L30.4119 30.3655C30.1588 30.1124 29.9057 29.9062 29.8494 29.9062C29.7838 29.9062 29.6244 30.0374 29.4838 30.1968Z" fill="#0176D3"/>
<path d="M11.25 26.25V27H16.875H22.5V26.25V25.5H16.875H11.25V26.25Z" fill="#0176D3"/>
<path d="M11.25 30V30.75H16.125H21V30V29.25H16.125H11.25V30Z" fill="#0176D3"/>
<path d="M11.25 33.75V34.5H16.125H21V33.75V33H16.125H11.25V33.75Z" fill="#0176D3"/>
<path d="M11.25 37.5V38.25H16.5H21.75V37.5V36.75H16.5H11.25V37.5Z" fill="#0176D3"/>
<path d="M11.25 41.25V42H17.625H24V41.25V40.5H17.625H11.25V41.25Z" fill="#0176D3"/>
</svg>
