<svg width="52" height="52" viewBox="0 0 52 52" fill="none" xmlns="http://www.w3.org/2000/svg">
<path d="M35.1606 4.69736C32.0324 4.95127 31.2199 5.03252 31.1184 5.09853C30.9203 5.23057 30.8442 5.41338 30.8645 5.7333C30.8746 5.82471 31.1844 6.17002 31.9512 6.94189L33.0328 8.02353L28.5387 12.5177C26.0656 14.9907 24.0344 17.0118 24.0192 17.0118C24.0039 17.0118 22.2215 15.2243 20.0582 13.0356C17.8949 10.852 16.0668 9.02392 15.9957 8.97822C15.9195 8.92236 15.7723 8.88682 15.6402 8.88682H15.4117L9.15548 15.1431C5.71251 18.586 2.87383 21.4653 2.83829 21.5415C2.70625 21.8614 2.76211 21.9325 4.19922 23.3696C5.0879 24.2532 5.61094 24.7356 5.69727 24.761C5.77852 24.7763 5.9004 24.7763 5.97657 24.761C6.07305 24.7356 7.63712 23.2071 10.8922 19.9521L15.6656 15.1837L19.6266 19.1497C21.8051 21.3282 23.6485 23.1462 23.7246 23.1868C23.8008 23.2274 23.9582 23.2579 24.0801 23.2579H24.2985L30.3059 17.2505L36.3133 11.2481L37.3645 12.3298C38.4258 13.4216 38.4461 13.4368 38.7711 13.4114C38.9438 13.3962 39.1063 13.2895 39.1875 13.1321C39.2434 13.0204 39.3449 11.9591 39.5887 8.94775C39.7664 6.72861 39.8985 4.85986 39.8832 4.79893C39.8274 4.58056 39.5836 4.40283 39.3195 4.3876C39.1875 4.38252 37.3137 4.51963 35.1606 4.69736ZM38.6442 5.77392C38.6442 5.96689 38.243 11.106 38.2125 11.304C38.1871 11.4563 38.177 11.4462 37.3899 10.654C36.5469 9.80596 36.4352 9.73486 36.1305 9.85166C36.0391 9.88721 33.6524 12.2333 30.0012 15.8845L24.0192 21.8614L19.9668 17.8091C16.0211 13.8685 15.9145 13.7618 15.7266 13.7618C15.6199 13.7618 15.4828 13.7872 15.4219 13.8177C15.3609 13.8481 13.1723 16.0063 10.5621 18.6165L5.81407 23.3595L5.01172 22.5571L4.21446 21.7599L9.94259 16.0317L15.6707 10.3036L18.4078 13.061C19.916 14.5794 21.7188 16.3974 22.4195 17.0981C23.7195 18.4185 23.8617 18.5251 24.1613 18.4591C24.3289 18.4235 34.3988 8.37392 34.4547 8.18604C34.536 7.90674 34.4395 7.76455 33.6016 6.9165C33.1496 6.46455 32.7942 6.09385 32.8043 6.08877C32.9211 6.06338 38.0856 5.64697 38.3293 5.64189C38.6391 5.63682 38.6442 5.63682 38.6442 5.77392Z" fill="#0176D3" stroke="#0176D3" stroke-width="0.4"/>
<path d="M32.3171 21.1707C32.2257 21.2266 32.1343 21.2977 32.114 21.3383C32.0886 21.3738 32.0581 27.0359 32.0429 33.9219L32.0175 46.4395L30.687 46.4547L29.3515 46.4648V35.816C29.3515 27.4625 29.3362 25.1367 29.2854 25.0402C29.255 24.9742 29.1585 24.8676 29.0823 24.8117C28.9401 24.7051 28.9046 24.7051 26.0558 24.7051C22.9683 24.7051 22.9784 24.7051 22.8362 24.959C22.7905 25.0352 22.7702 27.7062 22.7499 35.75L22.7245 46.4395H21.3534H19.9823L19.9569 37.6035C19.9366 30.7988 19.9163 28.7422 19.8706 28.6609C19.835 28.6 19.7284 28.5137 19.6319 28.468C19.4796 28.3969 19.1444 28.3867 16.712 28.3867C13.7413 28.3867 13.721 28.3867 13.5432 28.6559C13.462 28.7777 13.4569 29.4023 13.4468 37.6137L13.4315 46.4395H12.0604H10.6893L10.664 39.391L10.6386 32.3375L10.471 32.1902L10.3085 32.043H7.36317H4.41786L4.25536 32.1902L4.08778 32.3375L4.07254 39.4012L4.06239 46.4648H2.737C1.3202 46.4648 1.19833 46.4852 1.08153 46.7289C0.919029 47.0539 0.990122 47.3535 1.27958 47.5312C1.44715 47.6328 1.47762 47.6328 21.3534 47.6328C40.9753 47.6328 41.2597 47.6328 41.4222 47.5312C41.6964 47.3687 41.7726 47.0895 41.6405 46.7695C41.5237 46.4801 41.4272 46.4648 39.9647 46.4648H38.6444V44.784C38.6444 42.9203 38.6393 42.8898 38.3093 42.7324C38.1061 42.6359 38.0249 42.6359 37.8065 42.7273C37.5069 42.8543 37.5019 42.8746 37.4765 44.7383L37.4511 46.4395L35.3335 46.4547L33.2108 46.4648V34.3535V22.2422L35.3335 22.2523L37.4511 22.2676L37.4765 22.9785C37.5019 23.7504 37.5425 23.8672 37.7811 23.9941C37.969 24.0906 38.1518 24.0906 38.3397 23.9941C38.619 23.852 38.6444 23.725 38.6444 22.5723C38.6444 21.7344 38.6292 21.4957 38.5683 21.3789C38.4058 21.0691 38.4718 21.0742 35.3335 21.0742C32.6065 21.0742 32.4694 21.0793 32.3171 21.1707ZM28.1733 36.1664L28.1581 46.4395L26.0405 46.4547L23.9179 46.4648V36.1816V25.8984H26.0507H28.1835L28.1733 36.1664ZM18.789 38.0352V46.4648H16.7069H14.6249V38.0352V29.6055H16.7069H18.789V38.0352ZM9.49598 39.8379V46.4648L7.3784 46.4547L5.25575 46.4395L5.24051 39.8227L5.23036 33.2109H7.36317H9.49598V39.8379Z" fill="#0176D3" stroke="#0176D3" stroke-width="0.4"/>
<path d="M39.0709 24.0247C38.8119 24.1009 38.6697 24.2938 38.6697 24.5782C38.6697 24.9083 38.7712 25.0048 39.5431 25.4212C39.8884 25.6091 40.1627 25.7665 40.1576 25.7716C40.1474 25.7817 39.9392 25.868 39.6853 25.9747C37.1615 27.0055 35.308 29.3364 34.8306 32.0735C34.6884 32.9063 34.6884 34.0692 34.8357 34.9071C35.2724 37.436 36.9025 39.6348 39.1775 40.7622C40.2642 41.3056 41.6912 41.6559 42.0974 41.4884C42.4884 41.3259 42.5087 40.6657 42.133 40.4677C42.072 40.4321 41.8537 40.3763 41.6404 40.3407C40.9752 40.2239 40.3658 40.0208 39.7361 39.711C37.8572 38.7817 36.5318 37.0856 36.0494 34.9884C35.9173 34.4298 35.8666 33.1958 35.9478 32.5864C36.2474 30.3673 37.5271 28.468 39.4466 27.4067C39.858 27.1782 40.6248 26.8481 40.6603 26.8786C40.6705 26.8887 40.4978 27.229 40.2744 27.6302C40.0509 28.0313 39.858 28.4223 39.8377 28.4934C39.7615 28.793 40.1017 29.1993 40.4267 29.1993C40.7314 29.1993 40.8584 29.0266 41.6556 27.5743C42.463 26.0966 42.5138 25.9544 42.3412 25.6852C42.2853 25.604 41.7978 25.3044 40.9955 24.8677C39.2384 23.913 39.3248 23.9536 39.0709 24.0247Z" fill="#0176D3" stroke="#0176D3" stroke-width="0.4"/>
<path d="M43.7375 25.4261C43.6715 25.4414 43.5547 25.5175 43.4683 25.5988C43.3414 25.7308 43.316 25.7918 43.316 26C43.316 26.2031 43.3414 26.2691 43.4633 26.391C43.5851 26.5128 43.7019 26.5585 44.1793 26.65C44.8648 26.7871 45.3676 26.9496 45.9262 27.2187C47.993 28.2089 49.4402 30.2148 49.7703 32.5457C49.8516 33.1347 49.8008 34.4246 49.6687 34.9882C49.3641 36.3136 48.8055 37.3546 47.8812 38.3144C47.1297 39.0964 46.2613 39.6652 45.3016 40.0156C44.8953 40.1628 44.8953 40.1628 44.9359 40.0511C44.9613 39.9902 45.134 39.5992 45.3168 39.1828C45.5047 38.7562 45.6519 38.355 45.6519 38.2586C45.6519 38.0503 45.4539 37.8066 45.2254 37.7304C45.0273 37.6695 44.7785 37.7457 44.6262 37.9132C44.5805 37.9691 44.2555 38.6648 43.9 39.4722C43.1992 41.0617 43.1891 41.1074 43.4582 41.3664C43.5394 41.4425 44.225 41.7625 45.0883 42.1332C46.759 42.8441 46.7894 42.8492 47.0687 42.5242C47.1855 42.3921 47.2262 42.3007 47.2262 42.1484C47.2262 41.8386 47.0637 41.6964 46.3629 41.3867L45.7433 41.1175L46.0125 41.0058C47.8254 40.2644 49.3945 38.7664 50.2273 36.9941C50.4965 36.4152 50.7148 35.7703 50.8316 35.1914C51.7203 30.8343 49.1203 26.655 44.8699 25.5937C44.2707 25.4464 43.9203 25.3957 43.7375 25.4261Z" fill="#0176D3" stroke="#0176D3" stroke-width="0.4"/>
<path d="M42.53 28.6C42.3726 28.7219 42.2507 28.9758 42.2507 29.184C42.2507 29.3109 42.2101 29.3465 41.8952 29.4937C40.9659 29.9254 40.3972 30.9766 40.5698 31.9465C40.773 33.0586 41.6007 33.7949 42.7839 33.9168C43.4695 33.9879 43.8706 34.2977 43.9671 34.8359C44.1448 35.816 43.1292 36.532 42.271 36.0293C42.1542 35.9582 42.007 35.8211 41.9409 35.7195C41.8089 35.5012 41.5702 35.3437 41.3722 35.3437C41.0472 35.3437 40.7781 35.618 40.7781 35.943C40.7781 36.3137 41.4585 37.0145 42.0019 37.2074L42.2507 37.2988V37.5426C42.2507 37.8676 42.3624 38.1113 42.5656 38.2383C42.7788 38.3652 42.9413 38.3652 43.1546 38.2383C43.3628 38.1113 43.4695 37.8676 43.4695 37.5273C43.4695 37.3598 43.4898 37.2734 43.5355 37.2734C43.8097 37.2684 44.5003 36.7555 44.7898 36.334C45.7698 34.8969 44.8253 32.9621 43.0378 32.7488C42.4945 32.6828 42.337 32.632 42.1085 32.4289C41.8292 32.1852 41.7277 31.9312 41.7531 31.5352C41.7734 31.1289 41.9308 30.8547 42.2507 30.6414C42.4284 30.5246 42.5097 30.5043 42.8499 30.5043C43.307 30.5043 43.4796 30.5754 43.7183 30.8598C44.0382 31.2355 44.089 31.2762 44.2566 31.3117C44.5968 31.3727 44.9421 31.0781 44.9421 30.7176C44.9421 30.3469 44.3683 29.7223 43.8046 29.4734L43.4796 29.3363L43.4542 29.0773C43.3933 28.5797 42.8855 28.3156 42.53 28.6Z" fill="#0176D3" stroke="#0176D3" stroke-width="0.4"/>
</svg>
