<svg width="160" height="56" viewBox="0 0 160 56" fill="none" xmlns="http://www.w3.org/2000/svg">
<g clip-path="url(#clip0_320_329)">
<path d="M66.7386 33.943C72.0357 33.943 78.2008 31.0505 78.2008 23.9725C78.2008 17.7403 73.7715 16.2715 68.1853 14.0904C64.4682 12.6437 62.7096 11.798 62.7317 9.77245C62.7538 7.7248 64.4019 6.5229 66.6264 6.5229C68.6519 6.5229 70.9886 7.50295 73.6822 9.70445L77.3772 4.87475C74.2152 2.2729 70.4769 0.7582 66.47 0.80155C60.6611 0.8687 56.0762 4.85265 56.0762 10.0614C56.0762 16.1602 60.9722 18.4297 65.8699 20.1441C69.7867 21.5016 71.5011 22.3473 71.5011 24.729C71.5011 26.7316 69.9431 28.1562 66.8482 28.1562C64.311 28.1562 61.217 26.8872 58.7911 24.106L54.9414 28.8481C58.0116 32.0883 62.2752 33.9303 66.7394 33.9447L66.7386 33.943ZM101.196 22.2368C101.196 15.7148 96.8116 10.9301 90.2674 10.9301C83.9468 10.9301 79.2268 15.6476 79.2268 22.4136C79.2268 29.1796 84.1678 33.9422 90.689 33.9422C95.1625 33.9422 98.4121 32.1393 100.304 29.7355L96.4316 26.1298C95.1515 27.7567 93.182 28.6875 91.1123 28.6441C88.2631 28.622 86.1492 27.0198 85.4368 24.3712H101.041C101.16 23.6657 101.213 22.95 101.197 22.2343V22.236L101.196 22.2368ZM90.468 16.1814C93.0494 16.1814 94.6746 17.7174 95.2756 20.0761H85.4598C86.1491 17.4938 88.0412 16.1814 90.4671 16.1814H90.468ZM119.384 0.000849999V13.8227H119.274C117.603 11.9085 115.268 10.9284 112.553 10.9284C106.587 10.9284 102.07 15.736 102.07 22.5012C102.07 29.2663 106.565 33.9405 112.731 33.9405C115.692 33.9405 117.984 32.8508 119.542 30.8694H119.676V33.5622H125.351V0H119.384V0.000849999ZM113.82 28.6008C110.481 28.6008 108.122 26.1307 108.122 22.5241C108.122 18.7178 110.638 16.2919 113.843 16.2919C117.248 16.2919 119.697 18.9626 119.697 22.5241C119.697 26.0856 117.093 28.6008 113.821 28.6008H113.82ZM131.986 8.1685C134.013 8.1787 135.667 6.54585 135.681 4.51775C135.649 2.50155 134.002 0.88485 131.986 0.88995C129.967 0.8772 128.316 2.49815 128.291 4.51775C128.297 6.54075 129.941 8.1753 131.964 8.1702C131.972 8.1702 131.979 8.1702 131.986 8.1702V8.1685ZM129.004 33.5631H134.969V11.3067H129.004V33.5622V33.5631ZM151.822 10.9276C149.077 10.9004 146.461 12.0904 144.678 14.1771H144.61V11.3058H138.645V33.5622H144.61V22.3669C144.61 18.405 146.636 16.2902 149.661 16.2902C152.421 16.2902 153.934 17.6026 153.934 21.8543V33.586H159.899V20.3677C159.899 13.5124 156.583 10.9301 151.819 10.9301L151.821 10.9267L151.822 10.9276Z" fill="white"/>
<g clip-path="url(#clip1_320_329)">
<path fill-rule="evenodd" clip-rule="evenodd" d="M5.86101 29.0198C9.03491 32.2167 13.3648 34.0102 17.8792 34C22.3944 34.0102 26.7251 32.2158 29.899 29.0198C36.5417 22.3703 36.5417 11.6297 29.899 4.98012C29.8845 4.96609 29.8703 4.95184 29.8561 4.9376C29.8418 4.92337 29.8276 4.90914 29.8132 4.89512C23.1755 -1.66518 12.4519 -1.62693 5.86101 4.98012C-0.77919 11.6305 -0.77919 22.3694 5.86101 29.0198ZM17.8809 22.78C21.0731 22.78 23.6609 20.1922 23.6609 17C23.6609 13.8078 21.0731 11.22 17.8809 11.22C14.6886 11.22 12.1009 13.8078 12.1009 17C12.1009 20.1922 14.6886 22.78 17.8809 22.78Z" fill="#0176D3"/>
</g>
</g>
<path d="M145.568 55.69L146.488 46.01H148.158C148.172 46.2967 148.182 46.5833 148.188 46.87C148.195 47.15 148.202 47.4333 148.208 47.72C148.562 47.0733 148.992 46.5833 149.498 46.25C150.005 45.9167 150.568 45.75 151.188 45.75C151.922 45.75 152.518 45.94 152.978 46.32C153.438 46.7 153.755 47.23 153.928 47.91C154.295 47.15 154.752 46.6 155.298 46.26C155.845 45.92 156.452 45.75 157.118 45.75C157.825 45.75 158.402 45.9267 158.848 46.28C159.302 46.6333 159.622 47.13 159.808 47.77C159.995 48.4033 160.045 49.1567 159.958 50.03L159.438 55.69H157.488L158.018 50.03C158.078 49.27 157.962 48.69 157.668 48.29C157.382 47.89 156.968 47.69 156.428 47.69C155.975 47.69 155.572 47.8233 155.218 48.09C154.872 48.3567 154.592 48.7533 154.378 49.28C154.165 49.8 154.018 50.45 153.938 51.23L153.538 55.69H151.588L152.108 50.03C152.188 49.2567 152.078 48.6733 151.778 48.28C151.478 47.8867 151.068 47.69 150.548 47.69C149.855 47.69 149.272 48 148.798 48.62C148.325 49.2333 148.032 50.13 147.918 51.31L147.508 55.69H145.568Z" fill="#0176D3"/>
<path d="M138.645 55.69L139.565 45.99H141.505L141.325 47.89C141.638 47.19 142.011 46.6734 142.445 46.34C142.885 46 143.361 45.83 143.875 45.83C144.001 45.83 144.131 45.8434 144.265 45.87C144.405 45.89 144.541 45.9267 144.675 45.98L144.425 48.13C144.258 48.0834 144.085 48.05 143.905 48.03C143.731 48.0034 143.565 47.99 143.405 47.99C142.938 47.99 142.535 48.1234 142.195 48.39C141.861 48.6567 141.591 49.0467 141.385 49.56C141.185 50.0667 141.051 50.6834 140.985 51.41L140.585 55.69H138.645Z" fill="#0176D3"/>
<path d="M132.791 55.95C132.065 55.95 131.408 55.7433 130.821 55.33C130.241 54.91 129.798 54.3167 129.491 53.55C129.185 52.7833 129.078 51.8833 129.171 50.85C129.271 49.7567 129.545 48.8333 129.991 48.08C130.445 47.32 131.001 46.7433 131.661 46.35C132.321 45.95 133.018 45.75 133.751 45.75C134.291 45.75 134.761 45.85 135.161 46.05C135.561 46.2433 135.898 46.5033 136.171 46.83C136.445 47.15 136.651 47.5133 136.791 47.92C136.931 48.3267 137.011 48.7433 137.031 49.17L135.051 49.25C134.985 48.7967 134.825 48.4233 134.571 48.13C134.325 47.8367 133.981 47.69 133.541 47.69C133.175 47.69 132.821 47.8033 132.481 48.03C132.141 48.2567 131.848 48.6033 131.601 49.07C131.361 49.53 131.208 50.1233 131.141 50.85C131.075 51.53 131.111 52.1067 131.251 52.58C131.391 53.0467 131.611 53.4 131.911 53.64C132.211 53.88 132.561 54 132.961 54C133.508 54 133.935 53.85 134.241 53.55C134.548 53.2433 134.725 52.8233 134.771 52.29H136.741C136.681 52.97 136.481 53.5867 136.141 54.14C135.801 54.6933 135.348 55.1333 134.781 55.46C134.215 55.7867 133.551 55.95 132.791 55.95Z" fill="#0176D3"/>
<path d="M122.155 55.95C121.488 55.95 120.888 55.77 120.355 55.41C119.821 55.0433 119.401 54.53 119.095 53.87C118.795 53.2033 118.645 52.4333 118.645 51.56C118.645 50.8267 118.745 50.1167 118.945 49.43C119.145 48.7433 119.431 48.1233 119.805 47.57C120.185 47.01 120.638 46.5667 121.165 46.24C121.698 45.9133 122.298 45.75 122.965 45.75C123.531 45.75 124.015 45.88 124.415 46.14C124.821 46.3933 125.138 46.7667 125.365 47.26L125.865 42H127.825L126.525 55.69H124.945L124.845 54.13C124.518 54.7433 124.115 55.2 123.635 55.5C123.161 55.8 122.668 55.95 122.155 55.95ZM122.625 54C122.951 54 123.285 53.9 123.625 53.7C123.965 53.5 124.258 53.2167 124.505 52.85C124.758 52.4833 124.905 52.04 124.945 51.52L125.085 50.13C125.091 50.07 125.095 50.02 125.095 49.98C125.101 49.94 125.105 49.8933 125.105 49.84C125.105 49.3733 125.018 48.9833 124.845 48.67C124.678 48.35 124.451 48.1067 124.165 47.94C123.878 47.7733 123.565 47.69 123.225 47.69C122.771 47.69 122.378 47.8033 122.045 48.03C121.718 48.2567 121.451 48.5533 121.245 48.92C121.038 49.2867 120.881 49.6833 120.775 50.11C120.675 50.5367 120.625 50.9433 120.625 51.33C120.625 52.1433 120.808 52.7933 121.175 53.28C121.548 53.76 122.031 54 122.625 54Z" fill="#0176D3"/>
<path d="M111.303 55.87C110.676 55.87 110.126 55.7433 109.653 55.49C109.18 55.2367 108.823 54.84 108.583 54.3C108.343 53.7533 108.266 53.04 108.353 52.16L108.943 45.99H110.883L110.313 51.95C110.253 52.6233 110.353 53.13 110.613 53.47C110.88 53.81 111.28 53.98 111.813 53.98C112.26 53.98 112.676 53.85 113.063 53.59C113.45 53.33 113.77 52.95 114.023 52.45C114.283 51.95 114.446 51.3433 114.513 50.63L114.953 45.99H116.893L115.993 55.69H114.033L114.203 53.91C113.863 54.5633 113.443 55.0533 112.943 55.38C112.45 55.7067 111.903 55.87 111.303 55.87Z" fill="#0176D3"/>
<path d="M101.855 55.95C101.055 55.95 100.355 55.7633 99.7547 55.39C99.1547 55.01 98.7047 54.4433 98.4047 53.69C98.1114 52.93 98.018 51.99 98.1247 50.87C98.2314 49.7233 98.5047 48.7733 98.9447 48.02C99.3914 47.26 99.948 46.6933 100.615 46.32C101.288 45.94 102.018 45.75 102.805 45.75C103.591 45.75 104.281 45.94 104.875 46.32C105.475 46.7 105.925 47.27 106.225 48.03C106.525 48.7833 106.618 49.73 106.505 50.87C106.398 51.99 106.121 52.93 105.675 53.69C105.235 54.4433 104.685 55.01 104.025 55.39C103.365 55.7633 102.641 55.95 101.855 55.95ZM101.955 54.07C102.635 54.07 103.211 53.7967 103.685 53.25C104.158 52.6967 104.445 51.9033 104.545 50.87C104.651 49.81 104.538 49.0033 104.205 48.45C103.878 47.8967 103.371 47.62 102.685 47.62C101.998 47.62 101.421 47.8967 100.955 48.45C100.488 48.9967 100.201 49.8033 100.095 50.87C100.028 51.5567 100.055 52.14 100.175 52.62C100.301 53.0933 100.515 53.4533 100.815 53.7C101.121 53.9467 101.501 54.07 101.955 54.07Z" fill="#0176D3"/>
<path d="M93.5645 55.69L94.8445 42H96.7945L95.5045 55.69H93.5645Z" fill="#0176D3"/>
<path d="M87.7015 55.95C86.9748 55.95 86.3182 55.7433 85.7315 55.33C85.1515 54.91 84.7082 54.3167 84.4015 53.55C84.0948 52.7833 83.9882 51.8833 84.0815 50.85C84.1815 49.7567 84.4548 48.8333 84.9015 48.08C85.3548 47.32 85.9115 46.7433 86.5715 46.35C87.2315 45.95 87.9282 45.75 88.6615 45.75C89.2015 45.75 89.6715 45.85 90.0715 46.05C90.4715 46.2433 90.8082 46.5033 91.0815 46.83C91.3548 47.15 91.5615 47.5133 91.7015 47.92C91.8415 48.3267 91.9215 48.7433 91.9415 49.17L89.9615 49.25C89.8948 48.7967 89.7348 48.4233 89.4815 48.13C89.2348 47.8367 88.8915 47.69 88.4515 47.69C88.0848 47.69 87.7315 47.8033 87.3915 48.03C87.0515 48.2567 86.7582 48.6033 86.5115 49.07C86.2715 49.53 86.1182 50.1233 86.0515 50.85C85.9848 51.53 86.0215 52.1067 86.1615 52.58C86.3015 53.0467 86.5215 53.4 86.8215 53.64C87.1215 53.88 87.4715 54 87.8715 54C88.4182 54 88.8448 53.85 89.1515 53.55C89.4582 53.2433 89.6348 52.8233 89.6815 52.29H91.6515C91.5915 52.97 91.3915 53.5867 91.0515 54.14C90.7115 54.6933 90.2582 55.1333 89.6915 55.46C89.1248 55.7867 88.4615 55.95 87.7015 55.95Z" fill="#0176D3"/>
<path d="M77.0647 55.95C76.398 55.95 75.798 55.77 75.2647 55.41C74.7314 55.0433 74.3114 54.53 74.0047 53.87C73.7047 53.2033 73.5547 52.4333 73.5547 51.56C73.5547 50.8267 73.6547 50.1167 73.8547 49.43C74.0547 48.7433 74.3414 48.1233 74.7147 47.57C75.0947 47.01 75.548 46.5667 76.0747 46.24C76.608 45.9133 77.208 45.75 77.8747 45.75C78.4414 45.75 78.9247 45.88 79.3247 46.14C79.7314 46.3933 80.048 46.7667 80.2747 47.26L80.7747 42H82.7347L81.4347 55.69H79.8547L79.7547 54.13C79.428 54.7433 79.0247 55.2 78.5447 55.5C78.0714 55.8 77.578 55.95 77.0647 55.95ZM77.5347 54C77.8614 54 78.1947 53.9 78.5347 53.7C78.8747 53.5 79.168 53.2167 79.4147 52.85C79.668 52.4833 79.8147 52.04 79.8547 51.52L79.9947 50.13C80.0014 50.07 80.0047 50.02 80.0047 49.98C80.0114 49.94 80.0147 49.8933 80.0147 49.84C80.0147 49.3733 79.928 48.9833 79.7547 48.67C79.588 48.35 79.3614 48.1067 79.0747 47.94C78.788 47.7733 78.4747 47.69 78.1347 47.69C77.6814 47.69 77.288 47.8033 76.9547 48.03C76.628 48.2567 76.3614 48.5533 76.1547 48.92C75.948 49.2867 75.7914 49.6833 75.6847 50.11C75.5847 50.5367 75.5347 50.9433 75.5347 51.33C75.5347 52.1433 75.718 52.7933 76.0847 53.28C76.458 53.76 76.9414 54 77.5347 54Z" fill="#0176D3"/>
<path d="M68.0133 55.95C67.26 55.95 66.5933 55.7433 66.0133 55.33C65.44 54.91 65.0067 54.32 64.7133 53.56C64.4267 52.7933 64.3333 51.8933 64.4333 50.86C64.5333 49.7933 64.8 48.88 65.2333 48.12C65.6667 47.36 66.2067 46.7767 66.8533 46.37C67.5 45.9567 68.2033 45.75 68.9633 45.75C69.5767 45.75 70.1 45.8733 70.5333 46.12C70.9667 46.3667 71.3133 46.7 71.5733 47.12C71.84 47.54 72.0233 48.0167 72.1233 48.55C72.23 49.0833 72.2567 49.6433 72.2033 50.23C72.19 50.4167 72.1667 50.6067 72.1333 50.8C72.1067 50.9867 72.07 51.1767 72.0233 51.37H65.8533L66.3433 51.01C66.2633 51.6167 66.2733 52.1633 66.3733 52.65C66.4733 53.1367 66.67 53.52 66.9633 53.8C67.2633 54.0733 67.67 54.21 68.1833 54.21C68.6167 54.21 68.9933 54.0933 69.3133 53.86C69.6333 53.6267 69.8567 53.28 69.9833 52.82H71.9433C71.7967 53.4467 71.5367 53.9967 71.1633 54.47C70.79 54.9367 70.3333 55.3 69.7933 55.56C69.2533 55.82 68.66 55.95 68.0133 55.95ZM66.4033 50.33L66.0133 50.03H70.8733L70.3833 50.3C70.45 49.82 70.4533 49.3667 70.3933 48.94C70.3333 48.5067 70.18 48.1567 69.9333 47.89C69.6933 47.6167 69.3233 47.48 68.8233 47.48C68.3633 47.48 67.96 47.6067 67.6133 47.86C67.2733 48.1133 67 48.4567 66.7933 48.89C66.5933 49.3167 66.4633 49.7967 66.4033 50.33Z" fill="#0176D3"/>
<path d="M58.79 55.95C58.0633 55.95 57.42 55.8233 56.86 55.57C56.3066 55.3167 55.8833 54.9533 55.59 54.48C55.3033 54 55.19 53.43 55.25 52.77H57.08C57.0333 53.2433 57.1666 53.61 57.48 53.87C57.8 54.1233 58.2366 54.25 58.79 54.25C59.35 54.25 59.7966 54.13 60.13 53.89C60.4633 53.65 60.6533 53.3567 60.7 53.01C60.74 52.69 60.6466 52.4467 60.42 52.28C60.2 52.1133 59.9166 51.9667 59.57 51.84L57.79 51.11C57.1433 50.8567 56.65 50.51 56.31 50.07C55.97 49.6233 55.8333 49.0867 55.9 48.46C55.96 47.9067 56.1566 47.43 56.49 47.03C56.8233 46.6233 57.2666 46.31 57.82 46.09C58.3733 45.8633 59.0066 45.75 59.72 45.75C60.8533 45.75 61.69 46.0167 62.23 46.55C62.7766 47.0767 63.0233 47.7433 62.97 48.55H61.13C61.1233 48.1967 60.99 47.9233 60.73 47.73C60.47 47.5367 60.1066 47.44 59.64 47.44C59.2866 47.44 58.9866 47.4933 58.74 47.6C58.4933 47.7067 58.3033 47.8467 58.17 48.02C58.0433 48.1867 57.9666 48.3633 57.94 48.55C57.9 48.8433 57.9833 49.0833 58.19 49.27C58.3966 49.45 58.6633 49.5967 58.99 49.71L60.91 50.51C61.53 50.7433 62.0233 51.0633 62.39 51.47C62.7566 51.87 62.9066 52.3833 62.84 53.01C62.8 53.51 62.6133 53.9833 62.28 54.43C61.9466 54.8767 61.4833 55.2433 60.89 55.53C60.3033 55.81 59.6033 55.95 58.79 55.95Z" fill="#0176D3"/>
<defs>
<clipPath id="clip0_320_329">
<rect width="159.12" height="34" fill="white" transform="translate(0.880859)"/>
</clipPath>
<clipPath id="clip1_320_329">
<rect width="34" height="34" fill="white" transform="translate(0.880859 -3.05176e-05)"/>
</clipPath>
</defs>
</svg>
