<svg width="106" height="34" viewBox="0 0 106 34" fill="none" xmlns="http://www.w3.org/2000/svg">
<path d="M12.7386 33.943C18.0357 33.943 24.2008 31.0505 24.2008 23.9725C24.2008 17.7403 19.7715 16.2715 14.1853 14.0904C10.4682 12.6437 8.70956 11.798 8.73166 9.77245C8.75376 7.7248 10.4019 6.5229 12.6264 6.5229C14.6519 6.5229 16.9886 7.50295 19.6822 9.70445L23.3772 4.87475C20.2152 2.2729 16.4769 0.7582 12.47 0.80155C6.66106 0.8687 2.07615 4.85265 2.07615 10.0614C2.07615 16.1602 6.97216 18.4297 11.8699 20.1441C15.7867 21.5016 17.5011 22.3473 17.5011 24.729C17.5011 26.7316 15.9431 28.1562 12.8482 28.1562C10.311 28.1562 7.21695 26.8872 4.79105 24.106L0.941406 28.8481C4.01161 32.0883 8.2752 33.9303 12.7394 33.9447L12.7386 33.943ZM47.1958 22.2368C47.1958 15.7148 42.8116 10.9301 36.2674 10.9301C29.9468 10.9301 25.2268 15.6476 25.2268 22.4136C25.2268 29.1796 30.1678 33.9422 36.689 33.9422C41.1625 33.9422 44.4121 32.1393 46.3042 29.7355L42.4316 26.1298C41.1515 27.7567 39.182 28.6875 37.1123 28.6441C34.2631 28.622 32.1492 27.0198 31.4368 24.3712H47.0411C47.1601 23.6657 47.2128 22.95 47.1967 22.2343V22.236L47.1958 22.2368ZM36.468 16.1814C39.0494 16.1814 40.6746 17.7174 41.2756 20.0761H31.4598C32.1491 17.4938 34.0412 16.1814 36.4671 16.1814H36.468ZM65.3841 0.000849999V13.8227H65.2736C63.6034 11.9085 61.2676 10.9284 58.5527 10.9284C52.5874 10.9284 48.0696 15.736 48.0696 22.5012C48.0696 29.2663 52.5653 33.9405 58.7312 33.9405C61.6917 33.9405 63.9842 32.8508 65.5422 30.8694H65.6757V33.5622H71.3511V0H65.3841V0.000849999ZM59.82 28.6008C56.4812 28.6008 54.1225 26.1307 54.1225 22.5241C54.1225 18.7178 56.6376 16.2919 59.843 16.2919C63.2481 16.2919 65.6969 18.9626 65.6969 22.5241C65.6969 26.0856 63.0925 28.6008 59.8209 28.6008H59.82ZM77.9862 8.1685C80.0135 8.1787 81.6667 6.54585 81.6812 4.51775C81.6489 2.50155 80.0024 0.88485 77.9862 0.88995C75.9666 0.8772 74.3159 2.49815 74.2913 4.51775C74.2972 6.54075 75.9411 8.1753 77.9641 8.1702C77.9718 8.1702 77.9786 8.1702 77.9862 8.1702V8.1685ZM75.0036 33.5631H80.9689V11.3067H75.0036V33.5622V33.5631ZM97.8218 10.9276C95.0772 10.9004 92.4609 12.0904 90.6776 14.1771H90.6104V11.3058H84.6451V33.5622H90.6104V22.3669C90.6104 18.405 92.636 16.2902 95.6611 16.2902C98.4211 16.2902 99.9341 17.6026 99.9341 21.8543V33.586H105.899V20.3677C105.899 13.5124 102.583 10.9301 97.8193 10.9301L97.821 10.9267L97.8218 10.9276Z" fill="#18181A"/>
</svg>
